<?xml version="1.0" encoding="UTF-8" standalone="no"?>
<svg
   xmlns:dc="http://purl.org/dc/elements/1.1/"
   xmlns:cc="http://creativecommons.org/ns#"
   xmlns:rdf="http://www.w3.org/1999/02/22-rdf-syntax-ns#"
   xmlns:svg="http://www.w3.org/2000/svg"
   xmlns="http://www.w3.org/2000/svg"
   xmlns:sodipodi="http://sodipodi.sourceforge.net/DTD/sodipodi-0.dtd"
   xmlns:inkscape="http://www.inkscape.org/namespaces/inkscape"
   version="1.1"
   viewBox="0.0 0.0 698.0 416.0"
   stroke-miterlimit="10"
   clip-path="url(#p.0)"
   id="svg2"
   inkscape:version="0.48.3.1 r9886"
   width="100%"
   height="100%"
   sodipodi:docname="ExpDiagram.svg"
   stroke-linecap="square"
   stroke="none"
   fill="none">
  <sodipodi:namedview
     pagecolor="#ffffff"
     bordercolor="#666666"
     borderopacity="1"
     objecttolerance="10"
     gridtolerance="10"
     guidetolerance="10"
     inkscape:pageopacity="0"
     inkscape:pageshadow="2"
     inkscape:window-width="1920"
     inkscape:window-height="1012"
     id="namedview119"
     showgrid="false"
     inkscape:zoom="1.337222"
     inkscape:cx="274.93082"
     inkscape:cy="176.7605"
     inkscape:window-x="0"
     inkscape:window-y="34"
     inkscape:window-maximized="1"
     inkscape:current-layer="svg2" />
  <metadata
     id="metadata123">
    <rdf:RDF>
      <cc:Work
         rdf:about="">
        <dc:format>image/svg+xml</dc:format>
        <dc:type
           rdf:resource="http://purl.org/dc/dcmitype/StillImage" />
        <dc:title />
      </cc:Work>
    </rdf:RDF>
  </metadata>
  <defs
     id="defs121">
    <marker
       style="overflow:visible;"
       id="Arrow1Mend"
       refX="0.0"
       refY="0.0"
       orient="auto"
       inkscape:stockid="Arrow1Mend">
      <path
         transform="scale(0.4) rotate(180) translate(10,0)"
         style="fill-rule:evenodd;stroke:#000000;stroke-width:1.0pt;"
         d="M 0.0,0.0 L 5.0,-5.0 L -12.5,0.0 L 5.0,5.0 L 0.0,0.0 z "
         id="path4079" />
    </marker>
    <marker
       style="overflow:visible;"
       id="Arrow2Lend"
       refX="0.0"
       refY="0.0"
       orient="auto"
       inkscape:stockid="Arrow2Lend">
      <path
         transform="scale(1.1) rotate(180) translate(1,0)"
         d="M 8.7185878,4.0337352 L -2.2072895,0.016013256 L 8.7185884,-4.0017078 C 6.9730900,-1.6296469 6.9831476,1.6157441 8.7185878,4.0337352 z "
         id="path4091"
         style="fill-rule:evenodd;stroke-width:0.62500000;stroke-linejoin:round;" />
    </marker>
    <marker
       style="overflow:visible"
       id="DiamondLstart"
       refX="0.0"
       refY="0.0"
       orient="auto"
       inkscape:stockid="DiamondLstart">
      <path
         transform="scale(0.8) translate(7,0)"
         style="fill-rule:evenodd;stroke:#000000;stroke-width:1.0pt"
         d="M 0,-7.0710768 L -7.0710894,0 L 0,7.0710589 L 7.0710462,0 L 0,-7.0710768 z "
         id="path4158" />
    </marker>
    <marker
       style="overflow:visible;"
       id="Arrow1Send"
       refX="0.0"
       refY="0.0"
       orient="auto"
       inkscape:stockid="Arrow1Send">
      <path
         transform="scale(0.2) rotate(180) translate(6,0)"
         style="fill-rule:evenodd;stroke:#000000;stroke-width:1.0pt;"
         d="M 0.0,0.0 L 5.0,-5.0 L -12.5,0.0 L 5.0,5.0 L 0.0,0.0 z "
         id="path4085" />
    </marker>
    <marker
       style="overflow:visible;"
       id="Arrow1Lend"
       refX="0.0"
       refY="0.0"
       orient="auto"
       inkscape:stockid="Arrow1Lend">
      <path
         transform="scale(0.8) rotate(180) translate(12.5,0)"
         style="fill-rule:evenodd;stroke:#000000;stroke-width:1.0pt;"
         d="M 0.0,0.0 L 5.0,-5.0 L -12.5,0.0 L 5.0,5.0 L 0.0,0.0 z "
         id="path4073" />
    </marker>
    <marker
       style="overflow:visible"
       id="Arrow1Lstart"
       refX="0.0"
       refY="0.0"
       orient="auto"
       inkscape:stockid="Arrow1Lstart">
      <path
         transform="scale(0.8) translate(12.5,0)"
         style="fill-rule:evenodd;stroke:#000000;stroke-width:1.0pt"
         d="M 0.0,0.0 L 5.0,-5.0 L -12.5,0.0 L 5.0,5.0 L 0.0,0.0 z "
         id="path4070" />
    </marker>
    <marker
       style="overflow:visible;"
       id="Arrow1MendS"
       refX="0.0"
       refY="0.0"
       orient="auto"
       inkscape:stockid="Arrow1MendS">
      <path
         transform="scale(0.4) rotate(180) translate(10,0)"
         style="stroke:#000000;stroke-width:1.0pt;fill:#000000;fill-rule:evenodd"
         d="M 0.0,0.0 L 5.0,-5.0 L -12.5,0.0 L 5.0,5.0 L 0.0,0.0 z "
         id="path6228" />
    </marker>
  </defs>
  <clipPath
     id="p.0">
    <path
       id="path5"
       clip-rule="nonzero"
       d="m0 0l698.0 0l0 416.0l-698.0 0l0 -416.0z" />
  </clipPath>
  <path
     sodipodi:nodetypes="cc"
     inkscape:connector-curvature="0"
     id="path5634"
     d="m 552.26432,201.37595 c -31.14045,2.63527 -47.46382,-9.15663 -40.75613,-43.3735"
     style="fill:none;stroke:#000000;stroke-width:2;stroke-linecap:butt;stroke-linejoin:miter;stroke-opacity:1;stroke-miterlimit:10;stroke-dasharray:none" />
  <path
     id="path9"
     d="m108.1674 312.57422l0 82.39371l-92.18898 0l0 -82.39371z"
     fill-rule="nonzero"
     fill="#ffffff" />
  <path
     inkscape:connector-curvature="0"
     id="path5068"
     d="M 109.92939,353.93102 598.16252,115.48823"
     style="fill:none;stroke:#000000;stroke-width:2.5;stroke-linecap:butt;stroke-linejoin:miter;stroke-miterlimit:10;stroke-opacity:1;stroke-dasharray:none;marker-end:url(#Arrow1MendS)"
     sodipodi:nodetypes="cc" />
  <path
     id="path11"
     d="m108.1674 312.57422l0 82.39371l-92.18898 0l0 -82.39371z"
     stroke-linejoin="round"
     stroke-linecap="butt"
     stroke-width="3.0"
     stroke="#000000"
     fill-rule="nonzero" />
  <path
     id="path13"
     d="m144.30388 353.7711l588.4094 0"
     stroke-dasharray="4.0,3.0"
     stroke-linejoin="round"
     stroke-linecap="butt"
     stroke-width="1.0"
     stroke="#000000"
     fill-rule="nonzero" />
  <path
     id="path15"
     d="m552.0231 196.18051l-85.97418 131.65341"
     stroke-dasharray="8.0,6.0"
     stroke-linejoin="round"
     stroke-linecap="butt"
     stroke-width="2.0"
     stroke="#000000"
     fill-rule="evenodd" />
  <path
     id="path17"
     d="m463.28296 326.02768l-2.1966858 9.405579l7.728546 -5.793091z"
     stroke-linecap="butt"
     stroke-width="2.0"
     stroke="#000000"
     fill-rule="evenodd"
     fill="#000000" />
  <path
     id="path23"
     d="m701.1305 -0.5753911l0 167.62204l-268.9449 -167.62204z"
     fill-rule="nonzero"
     fill="#cfe2f3" />
  <path
     id="path25"
     d="m144.31963 329.18842l456.8504 -456.8504"
     stroke-dasharray="4.0,3.0"
     stroke-linejoin="round"
     stroke-linecap="butt"
     stroke-width="1.0"
     stroke="#000000"
     fill-rule="nonzero" />
  <path
     style="stroke-width:2;stroke-miterlimit:10;stroke-dasharray:2,2;stroke-dashoffset:0"
     id="path45"
     d="m550.55615 201.95293l49.206055 -76.187355"
     stroke-linejoin="round"
     stroke-linecap="butt"
     stroke-width="2.0"
     stroke="#000000"
     fill-rule="evenodd" />
  <path
     id="path47"
     d="m602.53723 127.55783l2.14917 -9.416542l-7.6992188 5.8320236z"
     stroke-linecap="butt"
     stroke-width="2.0"
     stroke="#000000"
     fill-rule="evenodd"
     fill="#000000" />
  <path
     id="path49"
     d="m144.28813 378.35376l-36.14173 -24.582672l36.173225 -24.582672z"
     fill-rule="nonzero"
     fill="#ffffff" />
  <path
     id="path51"
     d="m144.28813 378.35376l-36.14173 -24.582672l36.173225 -24.582672z"
     stroke-linejoin="round"
     stroke-linecap="butt"
     stroke-width="3.0"
     stroke="#000000"
     fill-rule="nonzero" />
  <path
     id="path53"
     d="m144.31963 378.35376l456.8504 456.8504"
     stroke-dasharray="4.0,3.0"
     stroke-linejoin="round"
     stroke-linecap="butt"
     stroke-width="1.0"
     stroke="#000000"
     fill-rule="nonzero" />
  <path
     id="path55"
     d="m551.8107 195.8183l0 0c2.79187 0 5.0551147 2.26326 5.0551147 5.05513l0 0c0 1.3406982 -0.5325928 2.62648 -1.4805908 3.5744934c-0.94799805 0.94802856 -2.2338257 1.4806213 -3.574524 1.4806213l0 0c-2.79187 0 -5.0551147 -2.26326 -5.0551147 -5.0551147l0 0c0 -2.79187 2.2632446 -5.05513 5.0551147 -5.05513z"
     fill-rule="nonzero"
     fill="#ff0000" />
  <path
     id="path57"
     d="m551.8107 195.8183l0 0c2.79187 0 5.0551147 2.26326 5.0551147 5.05513l0 0c0 1.3406982 -0.5325928 2.62648 -1.4805908 3.5744934c-0.94799805 0.94802856 -2.2338257 1.4806213 -3.574524 1.4806213l0 0c-2.79187 0 -5.0551147 -2.26326 -5.0551147 -5.0551147l0 0c0 -2.79187 2.2632446 -5.05513 5.0551147 -5.05513z"
     stroke-linejoin="round"
     stroke-linecap="butt"
     stroke-width="1.0"
     stroke="#000000"
     fill-rule="nonzero" />
  <path
     id="path59"
     d="m596.10706 23.453474l-36.503967 55.87401"
     stroke-dasharray="2.0,6.0"
     stroke-linejoin="round"
     stroke-linecap="butt"
     stroke-width="2.0"
     stroke="#000000"
     fill-rule="nonzero" />
  <path
     id="path61"
     d="m594.8524 29.588085l0 0c-2.791809 0 -5.0551147 -2.2632523 -5.0551147 -5.0551186l0 0c0 -1.3407001 0.5325928 -2.6264896 1.4806519 -3.5745068c0.94799805 -0.948019 2.2337646 -1.4806099 3.574463 -1.4806099l0 0c2.79187 0 5.0551147 2.2632523 5.0551147 5.0551167l0 0c0 2.7918663 -2.2632446 5.0551186 -5.0551147 5.0551186z"
     fill-rule="nonzero"
     fill="#ff0000" />
  <path
     id="path63"
     d="m594.8524 29.588085l0 0c-2.791809 0 -5.0551147 -2.2632523 -5.0551147 -5.0551186l0 0c0 -1.3407001 0.5325928 -2.6264896 1.4806519 -3.5745068c0.94799805 -0.948019 2.2337646 -1.4806099 3.574463 -1.4806099l0 0c2.79187 0 5.0551147 2.2632523 5.0551147 5.0551167l0 0c0 2.7918663 -2.2632446 5.0551186 -5.0551147 5.0551186z"
     stroke-linejoin="round"
     stroke-linecap="butt"
     stroke-width="1.0"
     stroke="#000000"
     fill-rule="nonzero" />
  <path
     id="path65"
     d="m472.37723 103.56447l36.503937 -55.874012"
     stroke-dasharray="2.0,6.0"
     stroke-linejoin="round"
     stroke-linecap="butt"
     stroke-width="2.0"
     stroke="#000000"
     fill-rule="nonzero" />
  <path
     id="path67"
     d="m473.6318 97.429855l0 0c2.79187 0 5.0551147 2.2632523 5.0551147 5.0551147l0 0c0 1.3406982 -0.5325928 2.6264877 -1.4805908 3.5745087c-0.94802856 0.94802094 -2.2338257 1.4806061 -3.574524 1.4806061l0 0c-2.79187 0 -5.0551147 -2.2632523 -5.0551147 -5.0551147l0 0c0 -2.7918625 2.2632446 -5.0551147 5.0551147 -5.0551147z"
     fill-rule="nonzero"
     fill="#ff0000" />
  <path
     id="path69"
     d="m473.6318 97.429855l0 0c2.79187 0 5.0551147 2.2632523 5.0551147 5.0551147l0 0c0 1.3406982 -0.5325928 2.6264877 -1.4805908 3.5745087c-0.94802856 0.94802094 -2.2338257 1.4806061 -3.574524 1.4806061l0 0c-2.79187 0 -5.0551147 -2.2632523 -5.0551147 -5.0551147l0 0c0 -2.7918625 2.2632446 -5.0551147 5.0551147 -5.0551147z"
     stroke-linejoin="round"
     stroke-linecap="butt"
     stroke-width="1.0"
     stroke="#000000"
     fill-rule="nonzero" />
  <path
     id="path71"
     d="m202.14114 -140.68825l537.8268 331.0866"
     stroke-linejoin="round"
     stroke-linecap="butt"
     stroke-width="3.0"
     stroke="#000000"
     fill-rule="nonzero" />
  <path
     id="path73"
     d="m674.51447 117.95538l-13.763794 24.440948"
     stroke-dasharray="2.0,6.0"
     stroke-linejoin="round"
     stroke-linecap="butt"
     stroke-width="2.0"
     stroke="#000000"
     fill-rule="nonzero" />
  <path
     id="path75"
     d="m674.00714 113.703445l0 0c2.79187 0 5.0551147 2.2632523 5.0551147 5.0551147l0 0c0 1.3406982 -0.5325928 2.6264877 -1.4805908 3.5745087c-0.9480591 0.94802094 -2.2338257 1.4806137 -3.574524 1.4806137l0 0c-2.79187 0 -5.0551147 -2.26326 -5.0551147 -5.0551224l0 0c0 -2.7918625 2.2632446 -5.0551147 5.0551147 -5.0551147z"
     fill-rule="nonzero"
     fill="#ff0000" />
  <path
     id="path77"
     d="m674.00714 113.703445l0 0c2.79187 0 5.0551147 2.2632523 5.0551147 5.0551147l0 0c0 1.3406982 -0.5325928 2.6264877 -1.4805908 3.5745087c-0.9480591 0.94802094 -2.2338257 1.4806137 -3.574524 1.4806137l0 0c-2.79187 0 -5.0551147 -2.26326 -5.0551147 -5.0551224l0 0c0 -2.7918625 2.2632446 -5.0551147 5.0551147 -5.0551147z"
     stroke-linejoin="round"
     stroke-linecap="butt"
     stroke-width="1.0"
     stroke="#000000"
     fill-rule="nonzero" />
  <path
     id="path79"
     d="m607.4876 57.377983l-23.275574 36.62992"
     stroke-dasharray="2.0,6.0"
     stroke-linejoin="round"
     stroke-linecap="butt"
     stroke-width="2.0"
     stroke="#000000"
     fill-rule="nonzero" />
  <path
     id="path81"
     d="m607.23376 62.3937l0 0c-2.79187 0 -5.0551147 -2.2632523 -5.0551147 -5.0551186l0 0c0 -1.3406982 0.5325928 -2.6264877 1.4805908 -3.5745049c0.9480591 -0.94802094 2.2338257 -1.4806099 3.574524 -1.4806099l0 0c2.79187 0 5.0551147 2.2632523 5.0551147 5.0551147l0 0c0 2.7918663 -2.2632446 5.0551186 -5.0551147 5.0551186z"
     fill-rule="nonzero"
     fill="#ff0000" />
  <path
     id="path83"
     d="m607.23376 62.3937l0 0c-2.79187 0 -5.0551147 -2.2632523 -5.0551147 -5.0551186l0 0c0 -1.3406982 0.5325928 -2.6264877 1.4805908 -3.5745049c0.9480591 -0.94802094 2.2338257 -1.4806099 3.574524 -1.4806099l0 0c2.79187 0 5.0551147 2.2632523 5.0551147 5.0551147l0 0c0 2.7918663 -2.2632446 5.0551186 -5.0551147 5.0551186z"
     stroke-linejoin="round"
     stroke-linecap="butt"
     stroke-width="1.0"
     stroke="#000000"
     fill-rule="nonzero" />
  <path
     id="path85"
     d="m625.65356 143.14699l9.921265 -15.937012"
     stroke-dasharray="2.0,6.0"
     stroke-linejoin="round"
     stroke-linecap="butt"
     stroke-width="2.0"
     stroke="#000000"
     fill-rule="nonzero" />
  <path
     id="path87"
     d="m625.5217 138.22054l0 0c2.79187 0 5.0551147 2.2632446 5.0551147 5.0551147l0 0c0 1.3406982 -0.5325928 2.6264954 -1.4805908 3.5745087c-0.94799805 0.9480133 -2.2338257 1.4806061 -3.574524 1.4806061l0 0c-2.79187 0 -5.0551147 -2.2632446 -5.0551147 -5.0551147l0 0c0 -2.79187 2.2632446 -5.0551147 5.0551147 -5.0551147z"
     fill-rule="nonzero"
     fill="#ff0000" />
  <path
     id="path89"
     d="m625.5217 138.22054l0 0c2.79187 0 5.0551147 2.2632446 5.0551147 5.0551147l0 0c0 1.3406982 -0.5325928 2.6264954 -1.4805908 3.5745087c-0.94799805 0.9480133 -2.2338257 1.4806061 -3.574524 1.4806061l0 0c-2.79187 0 -5.0551147 -2.2632446 -5.0551147 -5.0551147l0 0c0 -2.79187 2.2632446 -5.0551147 5.0551147 -5.0551147z"
     stroke-linejoin="round"
     stroke-linecap="butt"
     stroke-width="1.0"
     stroke="#000000"
     fill-rule="nonzero" />
  <path
     id="path91"
     d="m649.8497 213.85056l36.503906 -55.87401"
     stroke-dasharray="2.0,6.0"
     stroke-linejoin="round"
     stroke-linecap="butt"
     stroke-width="2.0"
     stroke="#000000"
     fill-rule="nonzero" />
  <path
     id="path93"
     d="m651.10425 207.71594l0 0c2.79187 0 5.0551147 2.2632446 5.0551147 5.0551147l0 0c0 1.3406982 -0.5325928 2.6264954 -1.4805908 3.5745087c-0.9480591 0.9480133 -2.2338257 1.4806061 -3.574524 1.4806061l0 0c-2.79187 0 -5.0551147 -2.2632446 -5.0551147 -5.0551147l0 0c0 -2.79187 2.2632446 -5.0551147 5.0551147 -5.0551147z"
     fill-rule="nonzero"
     fill="#ff0000" />
  <path
     id="path95"
     d="m651.10425 207.71594l0 0c2.79187 0 5.0551147 2.2632446 5.0551147 5.0551147l0 0c0 1.3406982 -0.5325928 2.6264954 -1.4805908 3.5745087c-0.9480591 0.9480133 -2.2338257 1.4806061 -3.574524 1.4806061l0 0c-2.79187 0 -5.0551147 -2.2632446 -5.0551147 -5.0551147l0 0c0 -2.79187 2.2632446 -5.0551147 5.0551147 -5.0551147z"
     stroke-linejoin="round"
     stroke-linecap="butt"
     stroke-width="1.0"
     stroke="#000000"
     fill-rule="nonzero" />
  <path
     id="path97"
     d="m521.4094 78.33071l9.921265 -15.937012"
     stroke-dasharray="2.0,6.0"
     stroke-linejoin="round"
     stroke-linecap="butt"
     stroke-width="2.0"
     stroke="#000000"
     fill-rule="nonzero" />
  <path
     id="path99"
     d="m521.27765 73.40426l0 0c2.79187 0 5.0551147 2.2632523 5.0551147 5.0551224l0 0c0 1.3406982 -0.5325928 2.6264877 -1.4805908 3.5745087c-0.9480591 0.9480133 -2.2338257 1.4806061 -3.574524 1.4806061l0 0c-2.79187 0 -5.0551147 -2.2632523 -5.0551147 -5.0551147l0 0c0 -2.79187 2.2632446 -5.0551224 5.0551147 -5.0551224z"
     fill-rule="nonzero"
     fill="#ff0000" />
  <path
     id="path101"
     d="m521.27765 73.40426l0 0c2.79187 0 5.0551147 2.2632523 5.0551147 5.0551224l0 0c0 1.3406982 -0.5325928 2.6264877 -1.4805908 3.5745087c-0.9480591 0.9480133 -2.2338257 1.4806061 -3.574524 1.4806061l0 0c-2.79187 0 -5.0551147 -2.2632523 -5.0551147 -5.0551147l0 0c0 -2.79187 2.2632446 -5.0551224 5.0551147 -5.0551224z"
     stroke-linejoin="round"
     stroke-linecap="butt"
     stroke-width="1.0"
     stroke="#000000"
     fill-rule="nonzero" />
  <path
     id="path103"
     d="m492.99634 15.519747l-9.921234 15.937008"
     stroke-dasharray="2.0,6.0"
     stroke-linejoin="round"
     stroke-linecap="butt"
     stroke-width="2.0"
     stroke="#000000"
     fill-rule="nonzero" />
  <path
     id="path105"
     d="m493.12814 20.446194l0 0c-2.7918396 0 -5.0551147 -2.2632523 -5.0551147 -5.0551176l0 0c0 -1.3407001 0.5325928 -2.6264896 1.4806213 -3.5745077c0.94802856 -0.948019 2.2337952 -1.4806099 3.5744934 -1.4806099l0 0c2.79187 0 5.0551453 2.2632532 5.0551453 5.0551176l0 0c0 2.7918653 -2.2632751 5.0551176 -5.0551453 5.0551176z"
     fill-rule="nonzero"
     fill="#ff0000" />
  <path
     id="path107"
     d="m493.12814 20.446194l0 0c-2.7918396 0 -5.0551147 -2.2632523 -5.0551147 -5.0551176l0 0c0 -1.3407001 0.5325928 -2.6264896 1.4806213 -3.5745077c0.94802856 -0.948019 2.2337952 -1.4806099 3.5744934 -1.4806099l0 0c2.79187 0 5.0551453 2.2632532 5.0551453 5.0551176l0 0c0 2.7918653 -2.2632751 5.0551176 -5.0551453 5.0551176z"
     stroke-linejoin="round"
     stroke-linecap="butt"
     stroke-width="1.0"
     stroke="#000000"
     fill-rule="nonzero" />
  <g
     transform="matrix(0.43848654,0,0,0.43848654,-98.858357,201.40748)"
     id="g3009">
    <g
       style="font-style:normal;font-variant:normal;font-weight:normal;font-stretch:normal;letter-spacing:normal;word-spacing:normal;text-anchor:start;fill:none;stroke:#000000;stroke-linecap:butt;stroke-linejoin:miter;stroke-miterlimit:10.43299961;stroke-opacity:1;stroke-dasharray:none;stroke-dashoffset:0"
       id="g3011"
       transform="matrix(1.0629921,0,0,-1.0629921,-186.02362,789.27165)"
       xml:space="preserve"
       stroke-miterlimit="10.433"
       font-style="normal"
       font-variant="normal"
       font-weight="normal"
       font-stretch="normal"
       font-size-adjust="none"
       letter-spacing="normal"
       word-spacing="normal"><path
         style="fill:#000000;stroke-width:0"
         inkscape:connector-curvature="0"
         d="m 465.88,415.87 0.11,-0.02 0.13,-0.02 0.14,-0.03 0.16,-0.04 0.16,-0.04 0.18,-0.04 0.19,-0.05 0.2,-0.06 0.21,-0.06 0.21,-0.07 0.21,-0.08 0.22,-0.08 0.22,-0.1 0.22,-0.1 0.22,-0.11 0.22,-0.12 0.22,-0.14 0.21,-0.14 0.2,-0.15 0.2,-0.16 0.19,-0.18 0.18,-0.19 0.17,-0.2 0.16,-0.21 0.14,-0.22 0.07,-0.12 0.06,-0.12 0.06,-0.13 0.05,-0.12 0.05,-0.14 0.05,-0.13 0.04,-0.14 0.03,-0.14 0.03,-0.15 0.03,-0.15 0.02,-0.16 0.01,-0.15 0.01,-0.17 0.01,-0.16 c 0,-2.53 -1.75,-4.53 -5.63,-4.53 -4.19,0 -5.98,2.84 -6.94,7.07 -0.14,0.64 -0.18,0.85 -0.68,0.85 -0.66,0 -0.66,-0.35 -0.66,-1.25 v -6.58 c 0,-0.84 0,-1.19 0.55,-1.19 0.25,0 0.29,0.05 1.25,1 0.09,0.1 0.09,0.19 1,1.14 2.18,-2.09 4.43,-2.14 5.48,-2.14 5.72,0 8.02,3.35 8.02,6.92 0,2.64 -1.5,4.14 -2.1,4.74 -1.64,1.59 -3.59,2 -5.68,2.39 -2.79,0.55 -6.13,1.2 -6.13,4.09 0,1.74 1.3,3.78 5.58,3.78 5.48,0 5.73,-4.48 5.83,-6.03 0.06,-0.45 0.5,-0.45 0.61,-0.45 0.64,0 0.64,0.25 0.64,1.2 v 5.03 c 0,0.85 0,1.19 -0.55,1.19 -0.25,0 -0.34,0 -1,-0.59 -0.14,-0.21 -0.64,-0.64 -0.84,-0.8 -1.89,1.39 -3.94,1.39 -4.69,1.39 -6.08,0 -7.97,-3.33 -7.97,-6.12 0,-1.74 0.8,-3.14 2.14,-4.24 1.59,-1.29 3,-1.59 6.58,-2.28 z"
         id="path3013" /><path
         style="fill:#000000;stroke-width:0"
         inkscape:connector-curvature="0"
         d="m 480.73,417.71 0.05,1.05 c 0.29,7.42 4.48,8.66 6.18,8.66 5.13,0 5.63,-6.72 5.63,-8.66 h -11.81 l -0.05,-1.05 h 13.91 c 1.09,0 1.23,0 1.23,1.05 0,4.92 -2.69,9.75 -8.91,9.75 -5.78,0 -10.37,-5.12 -10.37,-11.36 0,-6.67 5.23,-11.5 10.97,-11.5 6.08,0 8.31,5.53 8.31,6.47 0,0.5 -0.39,0.61 -0.64,0.61 -0.45,0 -0.55,-0.3 -0.66,-0.7 -1.73,-5.13 -6.21,-5.13 -6.71,-5.13 -2.5,0 -4.49,1.49 -5.63,3.33 -1.5,2.39 -1.5,5.69 -1.5,7.48 z"
         id="path3015" /><path
         style="fill:#000000;stroke-width:0"
         inkscape:connector-curvature="0"
         d="m 502.76,423.34 v -13.36 c 0,-2.23 -0.55,-2.23 -3.89,-2.23 v -1.55 c 1.75,0.05 4.28,0.16 5.63,0.16 1.29,0 3.89,-0.11 5.57,-0.16 v 1.55 c -3.32,0 -3.87,0 -3.87,2.23 v 9.17 c 0,5.19 3.53,7.97 6.72,7.97 3.14,0 3.68,-2.69 3.68,-5.53 v -11.61 c 0,-2.23 -0.54,-2.23 -3.88,-2.23 v -1.55 c 1.75,0.05 4.29,0.16 5.63,0.16 1.3,0 3.88,-0.11 5.58,-0.16 v 1.55 c -2.59,0 -3.84,0 -3.89,1.5 v 9.51 c 0,4.28 0,5.83 -1.54,7.61 -0.69,0.86 -2.35,1.84 -5.22,1.84 -3.64,0 -5.99,-2.14 -7.38,-5.21 v 5.21 l -7.03,-0.54 v -1.55 c 3.49,0 3.89,-0.34 3.89,-2.78 z"
         id="path3017" /><path
         style="fill:#000000;stroke-width:0"
         inkscape:connector-curvature="0"
         d="m 535.35,415.87 0.12,-0.02 0.12,-0.02 0.15,-0.03 0.15,-0.04 0.17,-0.04 0.18,-0.04 0.19,-0.05 0.2,-0.06 0.2,-0.06 0.21,-0.07 0.22,-0.08 0.22,-0.08 0.22,-0.1 0.22,-0.1 0.22,-0.11 0.22,-0.12 0.21,-0.14 0.22,-0.14 0.2,-0.15 0.2,-0.16 0.19,-0.18 0.18,-0.19 0.17,-0.2 0.16,-0.21 0.14,-0.22 0.07,-0.12 0.06,-0.12 0.06,-0.13 0.05,-0.12 0.05,-0.14 0.04,-0.13 0.05,-0.14 0.03,-0.14 0.03,-0.15 0.03,-0.15 0.02,-0.16 0.01,-0.15 0.01,-0.17 0,-0.16 c 0,-2.53 -1.75,-4.53 -5.62,-4.53 -4.19,0 -5.99,2.84 -6.94,7.07 -0.14,0.64 -0.19,0.85 -0.69,0.85 -0.65,0 -0.65,-0.35 -0.65,-1.25 v -6.58 c 0,-0.84 0,-1.19 0.54,-1.19 0.25,0 0.3,0.05 1.25,1 0.1,0.1 0.1,0.19 1,1.14 2.19,-2.09 4.44,-2.14 5.49,-2.14 5.72,0 8.01,3.35 8.01,6.92 0,2.64 -1.5,4.14 -2.09,4.74 -1.64,1.59 -3.59,2 -5.69,2.39 -2.78,0.55 -6.12,1.2 -6.12,4.09 0,1.74 1.29,3.78 5.57,3.78 5.49,0 5.74,-4.48 5.83,-6.03 0.07,-0.45 0.5,-0.45 0.61,-0.45 0.64,0 0.64,0.25 0.64,1.2 v 5.03 c 0,0.85 0,1.19 -0.54,1.19 -0.25,0 -0.35,0 -1,-0.59 -0.14,-0.21 -0.64,-0.64 -0.85,-0.8 -1.89,1.39 -3.94,1.39 -4.69,1.39 -6.07,0 -7.96,-3.33 -7.96,-6.12 0,-1.74 0.79,-3.14 2.14,-4.24 1.59,-1.29 3,-1.59 6.57,-2.28 z"
         id="path3019" /><path
         style="fill:#000000;stroke-width:0"
         inkscape:connector-curvature="0"
         d="m 568.15,416.86 -0.02,0.59 -0.04,0.59 -0.07,0.58 -0.1,0.57 -0.13,0.56 -0.14,0.55 -0.18,0.54 -0.2,0.53 -0.22,0.51 -0.25,0.5 -0.26,0.49 -0.29,0.47 -0.31,0.46 -0.33,0.44 -0.35,0.43 -0.36,0.4 -0.39,0.39 -0.4,0.37 -0.41,0.35 -0.44,0.32 -0.44,0.31 -0.46,0.28 -0.48,0.26 -0.49,0.24 -0.49,0.21 -0.51,0.18 -0.53,0.16 -0.53,0.13 -0.54,0.11 -0.54,0.07 -0.56,0.05 -0.56,0.01 -0.05,-1.09 c 2.19,0 4.33,-1.1 5.63,-3.24 1.29,-2.14 1.29,-5.03 1.29,-6.92 0,-1.8 0,-4.48 -1.09,-6.67 -1.09,-2.25 -3.28,-3.69 -5.78,-3.69 h 0 c -2.14,0 -4.33,1.05 -5.67,3.33 -1.25,2.2 -1.25,5.23 -1.25,7.03 0,1.94 0,4.63 1.19,6.83 1.35,2.28 3.68,3.33 5.68,3.33 l 0.05,1.09 c -6.22,0 -11.06,-5.42 -11.06,-11.65 0,-6.43 5.18,-11.21 11.01,-11.21 6.03,0 11.07,4.88 11.07,11.21 z"
         id="path3021" /><path
         style="fill:#000000;stroke-width:0"
         inkscape:connector-curvature="0"
         d="m 577.95,422.75 v 5.46 l -6.93,-0.54 v -1.55 c 3.49,0 3.89,-0.34 3.89,-2.78 v -13.36 c 0,-2.23 -0.54,-2.23 -3.89,-2.23 v -1.55 c 1.96,0.05 4.28,0.16 5.69,0.16 1.99,0 4.33,0 6.33,-0.16 v 1.55 h -1.05 c -3.69,0 -3.79,0.54 -3.79,2.34 v 7.67 c 0,4.92 2.09,9.36 5.89,9.36 0.34,0 0.43,0 0.54,-0.05 -0.15,-0.04 -1.15,-0.64 -1.15,-1.93 0,-1.41 1.04,-2.14 2.15,-2.14 0.89,0 2.14,0.59 2.14,2.18 0,1.6 -1.54,3.03 -3.68,3.03 -3.64,0 -5.44,-3.32 -6.14,-5.46 z"
         id="path3023" /></g>  </g>
  <g
     transform="matrix(0.7,0,0,0.7,138.65839,-36.648704)"
     id="g3073">
    <g
       style="font-style:normal;font-variant:normal;font-weight:normal;font-stretch:normal;letter-spacing:normal;word-spacing:normal;text-anchor:start;fill:none;stroke:#000000;stroke-linecap:butt;stroke-linejoin:miter;stroke-miterlimit:10.43299961;stroke-opacity:1;stroke-dasharray:none;stroke-dashoffset:0"
       id="g3075"
       transform="matrix(1.0629921,0,0,-1.0629921,-186.02362,789.27165)"
       xml:space="preserve"
       stroke-miterlimit="10.433"
       font-style="normal"
       font-variant="normal"
       font-weight="normal"
       font-stretch="normal"
       font-size-adjust="none"
       letter-spacing="normal"
       word-spacing="normal"><path
         style="fill:#000000;stroke-width:0"
         inkscape:connector-curvature="0"
         d="m 481.22,440.23 0,0 0,0.01 0,0 0,0.01 0,0.02 0,0.01 0,0.02 0,0.02 -0.01,0.02 0,0.02 -0.01,0.02 0,0.02 -0.01,0.02 -0.01,0.03 -0.01,0.02 -0.01,0.03 -0.02,0.02 -0.01,0.03 -0.02,0.02 -0.02,0.02 -0.02,0.03 -0.02,0.01 -0.01,0.01 -0.01,0.01 -0.02,0.01 -0.01,0.01 -0.02,0.01 -0.01,0.01 -0.02,0.01 -0.01,0.01 -0.02,0.01 -0.02,0 -0.02,0.01 -0.02,0.01 -0.02,0 -0.02,0.01 -0.03,0.01 -0.02,0 -0.02,0 -0.03,0.01 -0.03,0 -0.02,0 -0.03,0.01 -0.03,0 -0.03,0 c -0.75,0 -5.48,-0.46 -6.33,-0.55 -0.4,-0.05 -0.7,-0.3 -0.7,-0.95 0,-0.6 0.45,-0.6 1.2,-0.6 2.39,0 2.49,-0.34 2.49,-0.84 l -0.14,-1 -3,-11.81 c -0.89,1.84 -2.35,3.18 -4.58,3.18 l 0.05,-1.09 c 3.23,0 3.93,-4.08 3.93,-4.37 0,-0.32 -0.09,-0.61 -0.14,-0.86 l -2.5,-9.77 c -0.25,-0.89 -0.25,-0.98 -1,-1.84 -2.18,-2.74 -4.23,-3.53 -5.62,-3.53 -2.49,0 -3.19,2.73 -3.19,4.68 0,2.49 1.59,8.61 2.74,10.91 1.54,2.94 3.79,4.78 5.78,4.78 l -0.05,1.09 c -5.83,0 -12,-7.31 -12,-14.59 0,-4.69 2.73,-7.97 6.62,-7.97 0.99,0 3.49,0.21 6.47,3.74 0.41,-2.1 2.14,-3.74 4.53,-3.74 1.75,0 2.9,1.14 3.69,2.74 0.85,1.79 1.5,4.84 1.5,4.93 0,0.5 -0.45,0.5 -0.59,0.5 -0.5,0 -0.55,-0.2 -0.7,-0.9 -0.85,-3.24 -1.75,-6.17 -3.79,-6.17 -1.34,0 -1.5,1.29 -1.5,2.29 0,1.19 0.1,1.55 0.3,2.39 z"
         id="path3077" /><path
         style="fill:#000000;stroke-width:0"
         inkscape:connector-curvature="0"
         d="m 492.74,420.54 0,0.05 -0.01,0.06 0,0.05 -0.01,0.06 -0.01,0.05 -0.02,0.06 -0.01,0.05 -0.02,0.06 -0.03,0.06 -0.02,0.05 -0.03,0.06 -0.03,0.05 -0.03,0.06 -0.04,0.05 -0.03,0.05 -0.05,0.05 -0.04,0.05 -0.05,0.05 -0.05,0.04 -0.05,0.05 -0.06,0.04 -0.06,0.03 -0.06,0.04 -0.06,0.03 -0.07,0.03 -0.07,0.03 -0.08,0.02 -0.08,0.02 -0.08,0.01 -0.08,0.01 -0.09,0.01 -0.09,0 c -0.94,0 -1.95,-0.91 -1.95,-1.92 0,-0.59 0.45,-1.33 1.41,-1.33 1,0 1.95,0.99 1.95,1.92 z"
         id="path3079" /><path
         style="fill:#000000;stroke-width:0"
         inkscape:connector-curvature="0"
         d="m 485.63,402.84 -0.05,-0.17 -0.06,-0.17 -0.03,-0.08 -0.02,-0.09 -0.03,-0.08 -0.02,-0.09 -0.02,-0.09 -0.02,-0.09 -0.02,-0.1 -0.01,-0.09 -0.02,-0.1 0,-0.05 -0.01,-0.05 0,-0.06 0,-0.05 0,-0.05 0,-0.06 c 0,-1.64 1.39,-2.95 3.29,-2.95 3.49,0 5.03,4.79 5.03,5.33 0,0.45 -0.45,0.45 -0.56,0.45 -0.48,0 -0.53,-0.2 -0.67,-0.59 -0.8,-2.79 -2.33,-4.22 -3.69,-4.22 -0.7,0 -0.87,0.45 -0.87,1.22 0,0.79 0.25,1.46 0.56,2.23 0.34,0.94 0.73,1.87 1.11,2.78 0.31,0.84 1.58,4.02 1.72,4.44 0.09,0.34 0.2,0.76 0.2,1.11 0,1.64 -1.39,2.95 -3.31,2.95 -3.45,0 -5.05,-4.73 -5.05,-5.33 0,-0.45 0.49,-0.45 0.6,-0.45 0.48,0 0.51,0.17 0.62,0.56 0.91,3 2.44,4.25 3.72,4.25 0.56,0 0.87,-0.28 0.87,-1.22 0,-0.79 -0.2,-1.32 -1.07,-3.48 z"
         id="path3081" /></g>  </g>
  <g
     id="g3122"
     transform="matrix(0.7,0,0,0.7,271.94969,-36.464519)">
    <g
       id="content"
       transform="matrix(1.0629921,0,0,-1.0629921,-186.02362,789.27165)"
       xml:space="preserve"
       stroke-miterlimit="10.433"
       font-style="normal"
       font-variant="normal"
       font-weight="normal"
       font-stretch="normal"
       font-size-adjust="none"
       letter-spacing="normal"
       word-spacing="normal"
       style="font-style:normal;font-variant:normal;font-weight:normal;font-stretch:normal;letter-spacing:normal;word-spacing:normal;text-anchor:start;fill:none;stroke:#000000;stroke-linecap:butt;stroke-linejoin:miter;stroke-miterlimit:10.43299961;stroke-opacity:1;stroke-dasharray:none;stroke-dashoffset:0"><path
         d="m 479.29,417.96 -0.01,0.37 -0.01,0.35 -0.02,0.35 -0.02,0.34 -0.06,0.65 -0.09,0.63 -0.11,0.59 -0.14,0.57 -0.15,0.54 -0.18,0.51 -0.19,0.49 -0.21,0.45 -0.23,0.44 -0.25,0.4 -0.26,0.38 -0.27,0.36 -0.29,0.33 -0.3,0.31 -0.31,0.29 -0.31,0.26 -0.33,0.24 -0.34,0.22 -0.34,0.2 -0.35,0.18 -0.35,0.16 -0.36,0.14 -0.35,0.12 -0.36,0.11 -0.37,0.09 -0.36,0.06 -0.36,0.06 -0.35,0.04 -0.35,0.02 -0.35,0 -0.05,-1.09 c 4.94,0 4.94,-6.53 4.94,-10.41 0,-1.84 0,-4.73 0.09,-5.57 h 0 c -4.37,-3.85 -8.22,-4.39 -10.2,-4.39 -3,0 -4.49,2.25 -4.49,5.43 0,2.44 1.3,7.82 2.89,10.36 2.33,3.64 5.04,4.58 6.77,4.58 l 0.05,1.09 c -6.82,0 -13.39,-7.12 -13.39,-14.14 0,-4.64 2.98,-8.42 8.06,-8.42 3.14,0 6.73,1.14 10.51,4.19 0.66,-2.64 2.3,-4.19 4.54,-4.19 2.64,0 4.18,2.74 4.18,3.53 0,0.36 -0.29,0.5 -0.59,0.5 -0.36,0 -0.5,-0.14 -0.66,-0.5 -0.89,-2.43 -2.68,-2.43 -2.78,-2.43 -1.54,0 -1.54,3.89 -1.54,5.07 0,1.05 0,1.16 0.5,1.75 4.68,5.88 5.73,11.66 5.73,11.71 0,0.11 -0.06,0.5 -0.61,0.5 -0.5,0 -0.5,-0.14 -0.75,-1.05 -0.89,-3.14 -2.53,-6.92 -4.87,-9.86 z"
         id="path3125"
         inkscape:connector-curvature="0"
         style="fill:#000000;stroke-width:0" /><path
         d="m 498.74,420.54 0,0.05 -0.01,0.06 0,0.05 -0.01,0.06 -0.01,0.05 -0.02,0.06 -0.01,0.05 -0.02,0.06 -0.03,0.06 -0.02,0.05 -0.03,0.06 -0.03,0.05 -0.03,0.06 -0.04,0.05 -0.03,0.05 -0.05,0.05 -0.04,0.05 -0.05,0.05 -0.05,0.04 -0.05,0.05 -0.06,0.04 -0.06,0.03 -0.06,0.04 -0.06,0.03 -0.07,0.03 -0.07,0.03 -0.08,0.02 -0.08,0.02 -0.08,0.01 -0.08,0.01 -0.09,0.01 -0.09,0 c -0.94,0 -1.95,-0.91 -1.95,-1.92 0,-0.59 0.45,-1.33 1.41,-1.33 1,0 1.95,0.99 1.95,1.92 z"
         id="path3127"
         inkscape:connector-curvature="0"
         style="fill:#000000;stroke-width:0" /><path
         d="m 491.63,402.84 -0.05,-0.17 -0.06,-0.17 -0.03,-0.08 -0.02,-0.09 -0.03,-0.08 -0.02,-0.09 -0.02,-0.09 -0.02,-0.09 -0.02,-0.1 -0.01,-0.09 -0.02,-0.1 0,-0.05 -0.01,-0.05 0,-0.06 0,-0.05 0,-0.05 0,-0.06 c 0,-1.64 1.39,-2.95 3.29,-2.95 3.49,0 5.03,4.79 5.03,5.33 0,0.45 -0.45,0.45 -0.56,0.45 -0.48,0 -0.53,-0.2 -0.67,-0.59 -0.8,-2.79 -2.33,-4.22 -3.69,-4.22 -0.7,0 -0.87,0.45 -0.87,1.22 0,0.79 0.25,1.46 0.56,2.23 0.34,0.94 0.73,1.87 1.11,2.78 0.31,0.84 1.58,4.02 1.72,4.44 0.09,0.34 0.2,0.76 0.2,1.11 0,1.64 -1.39,2.95 -3.31,2.95 -3.45,0 -5.05,-4.73 -5.05,-5.33 0,-0.45 0.49,-0.45 0.6,-0.45 0.48,0 0.51,0.17 0.62,0.56 0.91,3 2.44,4.25 3.72,4.25 0.56,0 0.87,-0.28 0.87,-1.22 0,-0.79 -0.2,-1.32 -1.07,-3.48 z"
         id="path3129"
         inkscape:connector-curvature="0"
         style="fill:#000000;stroke-width:0" /></g>  </g>
  <g
     transform="matrix(0.7,0,0,0.7,279.09583,68.977958)"
     id="g3164">
    <g
       style="font-style:normal;font-variant:normal;font-weight:normal;font-stretch:normal;letter-spacing:normal;word-spacing:normal;text-anchor:start;fill:none;stroke:#000000;stroke-linecap:butt;stroke-linejoin:miter;stroke-miterlimit:10.43299961;stroke-opacity:1;stroke-dasharray:none;stroke-dashoffset:0"
       id="g3166"
       transform="matrix(1.0629921,0,0,-1.0629921,-186.02362,789.27165)"
       xml:space="preserve"
       stroke-miterlimit="10.433"
       font-style="normal"
       font-variant="normal"
       font-weight="normal"
       font-stretch="normal"
       font-size-adjust="none"
       letter-spacing="normal"
       word-spacing="normal"><path
         style="fill:#000000;stroke-width:0"
         inkscape:connector-curvature="0"
         d="m 459.91,409.14 -0.02,-0.07 -0.01,-0.08 -0.02,-0.07 -0.01,-0.08 -0.04,-0.16 -0.04,-0.16 -0.03,-0.16 -0.04,-0.16 -0.04,-0.16 -0.04,-0.16 -0.01,-0.08 -0.02,-0.07 -0.02,-0.07 -0.01,-0.07 -0.02,-0.07 -0.01,-0.07 -0.01,-0.06 -0.01,-0.06 -0.01,-0.06 -0.01,-0.05 -0.01,-0.05 -0.01,-0.04 -0.01,-0.04 0,-0.04 0,-0.03 0,-0.02 c 0,-0.89 0.7,-1.35 1.43,-1.35 0.61,0 1.5,0.39 1.85,1.39 0.06,0.11 0.65,2.44 0.95,3.69 l 1.1,4.48 c 0.29,1.1 0.59,2.19 0.84,3.35 0.2,0.84 0.61,2.28 0.66,2.48 0.75,1.55 3.39,6.08 8.1,6.08 2.25,0 2.71,-1.84 2.71,-3.48 0,-3.1 -2.46,-9.47 -3.25,-11.61 -0.44,-1.14 -0.49,-1.75 -0.49,-2.3 0,-2.33 1.74,-4.08 4.08,-4.08 4.69,0 6.53,7.27 6.53,7.67 0,0.5 -0.45,0.5 -0.61,0.5 -0.48,0 -0.48,-0.15 -0.73,-0.9 -1,-3.38 -2.64,-6.17 -5.09,-6.17 -0.85,0 -1.19,0.5 -1.19,1.64 0,1.25 0.45,2.45 0.89,3.54 0.95,2.64 3.05,8.11 3.05,10.96 0,3.34 -2.15,5.32 -5.74,5.32 -4.48,0 -6.92,-3.18 -7.76,-4.32 -0.25,2.79 -2.3,4.32 -4.6,4.32 -2.28,0 -3.23,-1.93 -3.73,-2.82 -0.8,-1.71 -1.5,-4.64 -1.5,-4.85 0,-0.5 0.5,-0.5 0.61,-0.5 0.5,0 0.54,0.07 0.84,1.16 0.84,3.53 1.84,5.92 3.64,5.92 0.99,0 1.55,-0.64 1.55,-2.28 0,-1.05 -0.16,-1.61 -0.8,-4.19 z"
         id="path3168" /><path
         style="fill:#000000;stroke-width:0"
         inkscape:connector-curvature="0"
         d="m 500.66,412.11 -0.11,-0.03 -0.11,-0.02 -0.11,-0.03 -0.11,-0.04 -0.1,-0.03 -0.09,-0.04 -0.09,-0.05 -0.09,-0.05 -0.08,-0.05 -0.08,-0.05 -0.07,-0.06 -0.08,-0.06 -0.06,-0.06 -0.07,-0.07 -0.06,-0.06 -0.05,-0.07 -0.05,-0.07 -0.05,-0.07 -0.05,-0.07 -0.04,-0.08 -0.03,-0.07 -0.04,-0.08 -0.03,-0.07 -0.03,-0.08 -0.02,-0.07 -0.02,-0.08 -0.02,-0.08 -0.01,-0.07 -0.01,-0.08 -0.01,-0.07 -0.01,-0.08 0,-0.07 c 0,-0.94 0.74,-1.28 1.36,-1.28 0.77,0 1.99,0.55 1.99,2.22 0,2.37 -2.72,3.03 -4.6,3.03 -5.23,0 -10.08,-4.8 -10.08,-9.64 0,-3 2.1,-6.06 6.46,-6.06 5.89,0 8.64,3.44 8.64,3.94 0,0.2 -0.31,0.59 -0.6,0.59 -0.2,0 -0.28,-0.08 -0.56,-0.36 -2.72,-3.2 -6.79,-3.2 -7.42,-3.2 -2.5,0 -3.62,1.7 -3.62,3.87 0,1 0.5,4.8 2.31,7.2 1.31,1.72 3.12,2.69 4.87,2.69 0.49,0 2.16,-0.06 3.03,-1.04 z"
         id="path3170" /></g>  </g>
  <g
     id="g3203"
     transform="matrix(0.7,0,0,0.7,343.33941,-24.454765)">
    <g
       id="content-8"
       transform="matrix(1.0629921,0,0,-1.0629921,-186.02362,789.27165)"
       xml:space="preserve"
       stroke-miterlimit="10.433"
       font-style="normal"
       font-variant="normal"
       font-weight="normal"
       font-stretch="normal"
       font-size-adjust="none"
       letter-spacing="normal"
       word-spacing="normal"
       style="font-style:normal;font-variant:normal;font-weight:normal;font-stretch:normal;letter-spacing:normal;word-spacing:normal;text-anchor:start;fill:none;stroke:#000000;stroke-linecap:butt;stroke-linejoin:miter;stroke-miterlimit:10.43299961;stroke-opacity:1;stroke-dasharray:none;stroke-dashoffset:0"><path
         d="m 457.75,400.12 -0.03,-0.15 -0.04,-0.15 -0.03,-0.14 -0.03,-0.13 -0.04,-0.13 -0.03,-0.11 -0.04,-0.12 -0.03,-0.1 -0.04,-0.1 -0.04,-0.09 -0.04,-0.09 -0.05,-0.08 -0.05,-0.07 -0.05,-0.07 -0.06,-0.07 -0.06,-0.06 -0.07,-0.05 -0.07,-0.05 -0.08,-0.04 -0.09,-0.04 -0.09,-0.04 -0.1,-0.03 -0.11,-0.03 -0.12,-0.02 -0.13,-0.02 -0.06,-0.01 -0.07,-0.01 -0.07,-0.01 -0.08,-0.01 -0.07,0 -0.08,-0.01 -0.08,0 -0.09,-0.01 -0.08,0 -0.09,0 -0.1,0 -0.09,0 -0.1,-0.01 -0.1,0 c -0.6,0 -1.14,0 -1.14,-0.93 0,-0.41 0.25,-0.61 0.64,-0.61 1.36,0 2.79,0.15 4.18,0.15 1.64,0 3.35,-0.15 4.94,-0.15 0.25,0 0.89,0 0.89,1 0,0.54 -0.5,0.54 -1.19,0.54 -2.5,0 -2.5,0.36 -2.5,0.8 0,0.61 2.1,8.72 2.46,9.97 0.64,-1.44 2.03,-3.19 4.58,-3.19 l -0.05,1.1 c -3.3,0 -3.94,4.14 -3.94,4.43 0,0.1 0,0.21 0.14,0.8 l 2.46,9.77 c 0.34,1.34 1.68,2.73 2.57,3.48 1.75,1.55 3.21,1.89 4.05,1.89 1.98,0 3.19,-1.73 3.19,-4.69 0,-2.93 -1.64,-8.65 -2.55,-10.56 -1.69,-3.48 -4.08,-5.12 -5.92,-5.12 l 0.05,-1.1 c 5.78,0 12,7.27 12,14.6 0,4.68 -2.83,7.96 -6.63,7.96 -2.48,0 -4.87,-1.78 -6.51,-3.73 -0.5,2.69 -2.65,3.73 -4.49,3.73 -2.3,0 -3.25,-1.93 -3.69,-2.82 -0.9,-1.71 -1.54,-4.69 -1.54,-4.85 0,-0.5 0.5,-0.5 0.59,-0.5 0.5,0 0.55,0.07 0.84,1.16 0.86,3.53 1.85,5.92 3.64,5.92 0.85,0 1.55,-0.39 1.55,-2.28 0,-1.16 -0.15,-1.7 -0.34,-2.55 z"
         id="path3206"
         inkscape:connector-curvature="0"
         style="fill:#000000;stroke-width:0" /><path
         d="m 491.9,420.54 0,0.05 -0.01,0.06 0,0.05 -0.01,0.06 -0.01,0.05 -0.02,0.06 -0.01,0.05 -0.02,0.06 -0.03,0.06 -0.02,0.05 -0.03,0.06 -0.03,0.05 -0.03,0.06 -0.04,0.05 -0.03,0.05 -0.05,0.05 -0.04,0.05 -0.05,0.05 -0.05,0.04 -0.05,0.05 -0.06,0.04 -0.06,0.03 -0.06,0.04 -0.06,0.03 -0.07,0.03 -0.07,0.03 -0.08,0.02 -0.07,0.02 -0.09,0.01 -0.08,0.01 -0.09,0.01 -0.09,0 c -0.94,0 -1.95,-0.91 -1.95,-1.92 0,-0.59 0.45,-1.33 1.41,-1.33 1,0 1.95,0.99 1.95,1.92 z"
         id="path3208"
         inkscape:connector-curvature="0"
         style="fill:#000000;stroke-width:0" /><path
         d="m 484.79,402.84 -0.05,-0.17 -0.06,-0.17 -0.03,-0.08 -0.02,-0.09 -0.03,-0.08 -0.02,-0.09 -0.02,-0.09 -0.02,-0.09 -0.02,-0.1 -0.01,-0.09 -0.02,-0.1 0,-0.05 -0.01,-0.05 0,-0.06 0,-0.05 0,-0.05 0,-0.06 c 0,-1.64 1.39,-2.95 3.29,-2.95 3.49,0 5.03,4.79 5.03,5.33 0,0.45 -0.45,0.45 -0.56,0.45 -0.48,0 -0.53,-0.2 -0.67,-0.59 -0.8,-2.79 -2.33,-4.22 -3.69,-4.22 -0.7,0 -0.87,0.45 -0.87,1.22 0,0.79 0.25,1.46 0.56,2.23 0.34,0.94 0.73,1.87 1.11,2.78 0.31,0.84 1.58,4.02 1.72,4.44 0.09,0.34 0.2,0.76 0.2,1.11 0,1.64 -1.39,2.95 -3.31,2.95 -3.45,0 -5.05,-4.73 -5.05,-5.33 0,-0.45 0.49,-0.45 0.6,-0.45 0.48,0 0.51,0.17 0.62,0.56 0.91,3 2.44,4.25 3.72,4.25 0.56,0 0.87,-0.28 0.87,-1.22 0,-0.79 -0.2,-1.32 -1.07,-3.48 z"
         id="path3210"
         inkscape:connector-curvature="0"
         style="fill:#000000;stroke-width:0" /></g>  </g>
  <g
     transform="matrix(0.7,0,0,0.7,419.61694,-147.18267)"
     id="g3245">
    <g
       style="font-style:normal;font-variant:normal;font-weight:normal;font-stretch:normal;letter-spacing:normal;word-spacing:normal;text-anchor:start;fill:none;stroke:#000000;stroke-linecap:butt;stroke-linejoin:miter;stroke-miterlimit:10.43299961;stroke-opacity:1;stroke-dasharray:none;stroke-dashoffset:0"
       id="g3247"
       transform="matrix(1.0629921,0,0,-1.0629921,-186.02362,789.27165)"
       xml:space="preserve"
       stroke-miterlimit="10.433"
       font-style="normal"
       font-variant="normal"
       font-weight="normal"
       font-stretch="normal"
       font-size-adjust="none"
       letter-spacing="normal"
       word-spacing="normal"><path
         style="fill:#000000;stroke-width:0"
         inkscape:connector-curvature="0"
         d="m 457.75,400.12 -0.03,-0.15 -0.04,-0.15 -0.03,-0.14 -0.03,-0.13 -0.04,-0.13 -0.03,-0.11 -0.04,-0.12 -0.03,-0.1 -0.04,-0.1 -0.04,-0.09 -0.04,-0.09 -0.05,-0.08 -0.05,-0.07 -0.05,-0.07 -0.06,-0.07 -0.06,-0.06 -0.07,-0.05 -0.07,-0.05 -0.08,-0.04 -0.09,-0.04 -0.09,-0.04 -0.1,-0.03 -0.11,-0.03 -0.12,-0.02 -0.13,-0.02 -0.06,-0.01 -0.07,-0.01 -0.07,-0.01 -0.08,-0.01 -0.07,0 -0.08,-0.01 -0.08,0 -0.09,-0.01 -0.08,0 -0.09,0 -0.1,0 -0.09,0 -0.1,-0.01 -0.1,0 c -0.6,0 -1.14,0 -1.14,-0.93 0,-0.41 0.25,-0.61 0.64,-0.61 1.36,0 2.79,0.15 4.18,0.15 1.64,0 3.35,-0.15 4.94,-0.15 0.25,0 0.89,0 0.89,1 0,0.54 -0.5,0.54 -1.19,0.54 -2.5,0 -2.5,0.36 -2.5,0.8 0,0.61 2.1,8.72 2.46,9.97 0.64,-1.44 2.03,-3.19 4.58,-3.19 l -0.05,1.1 c -3.3,0 -3.94,4.14 -3.94,4.43 0,0.1 0,0.21 0.14,0.8 l 2.46,9.77 c 0.34,1.34 1.68,2.73 2.57,3.48 1.75,1.55 3.21,1.89 4.05,1.89 1.98,0 3.19,-1.73 3.19,-4.69 0,-2.93 -1.64,-8.65 -2.55,-10.56 -1.69,-3.48 -4.08,-5.12 -5.92,-5.12 l 0.05,-1.1 c 5.78,0 12,7.27 12,14.6 0,4.68 -2.83,7.96 -6.63,7.96 -2.48,0 -4.87,-1.78 -6.51,-3.73 -0.5,2.69 -2.65,3.73 -4.49,3.73 -2.3,0 -3.25,-1.93 -3.69,-2.82 -0.9,-1.71 -1.54,-4.69 -1.54,-4.85 0,-0.5 0.5,-0.5 0.59,-0.5 0.5,0 0.55,0.07 0.84,1.16 0.86,3.53 1.85,5.92 3.64,5.92 0.85,0 1.55,-0.39 1.55,-2.28 0,-1.16 -0.15,-1.7 -0.34,-2.55 z"
         id="path3249" /><path
         style="fill:#000000;stroke-width:0"
         inkscape:connector-curvature="0"
         d="m 490.71,440.65 0.03,0.06 0.02,0.05 0.02,0.05 0.03,0.05 0.02,0.04 0.01,0.05 0.02,0.04 0.02,0.04 0.01,0.05 0.02,0.04 0.01,0.03 0.01,0.04 0.01,0.04 0.01,0.03 0.01,0.04 0.01,0.03 0.01,0.03 0.01,0.03 0,0.03 0.01,0.03 0,0.03 0.01,0.03 0,0.03 0,0.02 0.01,0.06 0,0.05 0,0.04 0,0.05 c 0,1.08 -0.98,1.92 -2.06,1.92 -1.33,0 -1.73,-1.09 -1.91,-1.64 l -4.6,-15.09 c -0.04,-0.06 -0.18,-0.52 -0.18,-0.56 0,-0.41 1.08,-0.77 1.36,-0.77 0.25,0 0.28,0.08 0.52,0.59 z"
         id="path3251" /><path
         style="fill:#000000;stroke-width:0"
         inkscape:connector-curvature="0"
         d="m 491.9,415.02 0,0.05 -0.01,0.05 0,0.06 -0.01,0.05 -0.01,0.06 -0.02,0.06 -0.01,0.05 -0.02,0.06 -0.03,0.05 -0.02,0.06 -0.03,0.06 -0.03,0.05 -0.03,0.05 -0.04,0.06 -0.03,0.05 -0.05,0.05 -0.04,0.05 -0.05,0.04 -0.05,0.05 -0.05,0.04 -0.06,0.04 -0.06,0.04 -0.06,0.04 -0.06,0.03 -0.07,0.03 -0.07,0.02 -0.08,0.02 -0.07,0.02 -0.09,0.02 -0.08,0.01 -0.09,0.01 -0.09,0 c -0.94,0 -1.95,-0.91 -1.95,-1.92 0,-0.6 0.45,-1.33 1.41,-1.33 1,0 1.95,0.98 1.95,1.92 z"
         id="path3253" /><path
         style="fill:#000000;stroke-width:0"
         inkscape:connector-curvature="0"
         d="m 484.79,397.32 -0.05,-0.17 -0.06,-0.17 -0.03,-0.09 -0.02,-0.08 -0.03,-0.09 -0.02,-0.09 -0.02,-0.08 -0.02,-0.1 -0.02,-0.09 -0.01,-0.1 -0.02,-0.1 0,-0.05 -0.01,-0.05 0,-0.05 0,-0.05 0,-0.06 0,-0.05 c 0,-1.64 1.39,-2.96 3.29,-2.96 3.49,0 5.03,4.8 5.03,5.33 0,0.46 -0.45,0.46 -0.56,0.46 -0.48,0 -0.53,-0.21 -0.67,-0.6 -0.8,-2.78 -2.33,-4.22 -3.69,-4.22 -0.7,0 -0.87,0.46 -0.87,1.22 0,0.8 0.25,1.47 0.56,2.24 0.34,0.93 0.73,1.87 1.11,2.78 0.31,0.84 1.58,4.01 1.72,4.44 0.09,0.34 0.2,0.76 0.2,1.1 0,1.65 -1.39,2.96 -3.31,2.96 -3.45,0 -5.05,-4.74 -5.05,-5.33 0,-0.45 0.49,-0.45 0.6,-0.45 0.48,0 0.51,0.17 0.62,0.56 0.91,3 2.44,4.25 3.72,4.25 0.56,0 0.87,-0.28 0.87,-1.22 0,-0.8 -0.2,-1.33 -1.07,-3.48 z"
         id="path3255" /></g>  </g>
  <g
     id="g3292"
     transform="matrix(0.7,0,0,0.7,368.78013,-70.116376)">
    <g
       id="content-9"
       transform="matrix(1.0629921,0,0,-1.0629921,-186.02362,789.27165)"
       xml:space="preserve"
       stroke-miterlimit="10.433"
       font-style="normal"
       font-variant="normal"
       font-weight="normal"
       font-stretch="normal"
       font-size-adjust="none"
       letter-spacing="normal"
       word-spacing="normal"
       style="font-style:normal;font-variant:normal;font-weight:normal;font-stretch:normal;letter-spacing:normal;word-spacing:normal;text-anchor:start;fill:none;stroke:#000000;stroke-linecap:butt;stroke-linejoin:miter;stroke-miterlimit:10.43299961;stroke-opacity:1;stroke-dasharray:none;stroke-dashoffset:0"><path
         d="m 464.83,417.71 0.14,0.01 0.16,0 0.17,0 0.17,0 0.19,0.01 0.2,0 0.21,0.01 0.22,0.01 0.22,0.01 0.23,0.01 0.24,0.01 0.25,0.02 0.25,0.02 0.25,0.02 0.53,0.05 0.53,0.07 0.55,0.07 0.54,0.1 0.54,0.11 0.54,0.12 0.26,0.07 0.26,0.08 0.25,0.08 0.25,0.08 0.24,0.09 0.24,0.1 c 3.48,1.5 3.73,4.43 3.73,5.12 0,2.2 -1.89,4.23 -5.33,4.23 v -1.09 c 2.35,0 3.69,-1.44 3.69,-3.14 0,-5.17 -7.97,-5.17 -10.01,-5.17 h -2.05 c 1.95,7.56 7.08,8.31 8.37,8.31 v 1.09 c -5.53,0 -13.04,-4.82 -13.04,-13.54 0,-5.08 2.93,-9.02 7.81,-9.02 7.12,0 11.31,5.28 11.31,5.88 0,0.29 -0.3,0.65 -0.59,0.65 -0.25,0 -0.35,-0.11 -0.66,-0.5 -3.94,-4.93 -9.36,-4.93 -9.95,-4.93 -3.89,0 -4.35,4.18 -4.35,5.78 0,0.59 0.05,2.14 0.8,5.18 z"
         id="path3295"
         inkscape:connector-curvature="0"
         style="fill:#000000;stroke-width:0" /><path
         d="m 489.98,420.54 0,0.05 -0.01,0.06 0,0.05 -0.01,0.06 -0.01,0.05 -0.02,0.06 -0.02,0.05 -0.01,0.06 -0.03,0.06 -0.02,0.05 -0.03,0.06 -0.03,0.05 -0.03,0.06 -0.04,0.05 -0.04,0.05 -0.04,0.05 -0.04,0.05 -0.05,0.05 -0.05,0.04 -0.05,0.05 -0.06,0.04 -0.06,0.03 -0.06,0.04 -0.06,0.03 -0.07,0.03 -0.07,0.03 -0.08,0.02 -0.08,0.02 -0.08,0.01 -0.08,0.01 -0.09,0.01 -0.09,0 c -0.94,0 -1.95,-0.91 -1.95,-1.92 0,-0.59 0.45,-1.33 1.4,-1.33 1,0 1.96,0.99 1.96,1.92 z"
         id="path3297"
         inkscape:connector-curvature="0"
         style="fill:#000000;stroke-width:0" /><path
         d="m 482.87,402.84 -0.06,-0.17 -0.05,-0.17 -0.03,-0.08 -0.02,-0.09 -0.03,-0.08 -0.02,-0.09 -0.02,-0.09 -0.02,-0.09 -0.02,-0.1 -0.02,-0.09 -0.01,-0.1 0,-0.05 -0.01,-0.05 0,-0.06 0,-0.05 0,-0.05 -0.01,-0.06 c 0,-1.64 1.4,-2.95 3.3,-2.95 3.49,0 5.03,4.79 5.03,5.33 0,0.45 -0.45,0.45 -0.56,0.45 -0.48,0 -0.53,-0.2 -0.67,-0.59 -0.8,-2.79 -2.33,-4.22 -3.69,-4.22 -0.7,0 -0.87,0.45 -0.87,1.22 0,0.79 0.25,1.46 0.56,2.23 0.34,0.94 0.73,1.87 1.11,2.78 0.31,0.84 1.58,4.02 1.72,4.44 0.09,0.34 0.2,0.76 0.2,1.11 0,1.64 -1.39,2.95 -3.31,2.95 -3.46,0 -5.05,-4.73 -5.05,-5.33 0,-0.45 0.48,-0.45 0.59,-0.45 0.49,0 0.52,0.17 0.63,0.56 0.91,3 2.44,4.25 3.72,4.25 0.56,0 0.87,-0.28 0.87,-1.22 0,-0.79 -0.2,-1.32 -1.08,-3.48 z"
         id="path3299"
         inkscape:connector-curvature="0"
         style="fill:#000000;stroke-width:0" /></g>  </g>
  <path
     transform="translate(-8.5999184,-81.138361)"
     d="m 496.5518,113.13331 a 4.8608236,4.8608236 0 1 1 -9.72164,0 4.8608236,4.8608236 0 1 1 9.72164,0 z"
     sodipodi:ry="4.8608236"
     sodipodi:rx="4.8608236"
     sodipodi:cy="113.13331"
     sodipodi:cx="491.69098"
     id="path3997"
     style="fill:#000000;fill-opacity:1;stroke:none"
     sodipodi:type="arc" />
  <path
     transform="translate(17.947664,-65.43416)"
     d="m 496.5518,113.13331 a 4.8608236,4.8608236 0 1 1 -9.72164,0 4.8608236,4.8608236 0 1 1 9.72164,0 z"
     sodipodi:ry="4.8608236"
     sodipodi:rx="4.8608236"
     sodipodi:cy="113.13331"
     sodipodi:cx="491.69098"
     id="path3997-4"
     style="fill:#000000;fill-opacity:1;stroke:none"
     sodipodi:type="arc" />
  <path
     transform="translate(39.634413,-51.225601)"
     d="m 496.5518,113.13331 a 4.8608236,4.8608236 0 1 1 -9.72164,0 4.8608236,4.8608236 0 1 1 9.72164,0 z"
     sodipodi:ry="4.8608236"
     sodipodi:rx="4.8608236"
     sodipodi:cy="113.13331"
     sodipodi:cx="491.69098"
     id="path3997-44"
     style="fill:#000000;fill-opacity:1;stroke:none"
     sodipodi:type="arc" />
  <path
     transform="translate(67.677627,-32.904035)"
     d="m 496.5518,113.13331 a 4.8608236,4.8608236 0 1 1 -9.72164,0 4.8608236,4.8608236 0 1 1 9.72164,0 z"
     sodipodi:ry="4.8608236"
     sodipodi:rx="4.8608236"
     sodipodi:cy="113.13331"
     sodipodi:cx="491.69098"
     id="path3997-7"
     style="fill:#000000;fill-opacity:1;stroke:none"
     sodipodi:type="arc" />
  <path
     transform="translate(91.981743,-18.321565)"
     d="m 496.5518,113.13331 a 4.8608236,4.8608236 0 1 1 -9.72164,0 4.8608236,4.8608236 0 1 1 9.72164,0 z"
     sodipodi:ry="4.8608236"
     sodipodi:rx="4.8608236"
     sodipodi:cy="113.13331"
     sodipodi:cx="491.69098"
     id="path3997-3"
     style="fill:#000000;fill-opacity:1;stroke:none"
     sodipodi:type="arc" />
  <path
     transform="translate(145.07689,13.460742)"
     d="m 496.5518,113.13331 a 4.8608236,4.8608236 0 1 1 -9.72164,0 4.8608236,4.8608236 0 1 1 9.72164,0 z"
     sodipodi:ry="4.8608236"
     sodipodi:rx="4.8608236"
     sodipodi:cy="113.13331"
     sodipodi:cx="491.69098"
     id="path3997-9"
     style="fill:#000000;fill-opacity:1;stroke:none"
     sodipodi:type="arc" />
  <path
     transform="translate(169.00709,29.164941)"
     d="m 496.5518,113.13331 a 4.8608236,4.8608236 0 1 1 -9.72164,0 4.8608236,4.8608236 0 1 1 9.72164,0 z"
     sodipodi:ry="4.8608236"
     sodipodi:rx="4.8608236"
     sodipodi:cy="113.13331"
     sodipodi:cx="491.69098"
     id="path3997-78"
     style="fill:#000000;fill-opacity:1;stroke:none"
     sodipodi:type="arc" />
  <path
     transform="translate(195.55467,44.86914)"
     d="m 496.5518,113.13331 a 4.8608236,4.8608236 0 1 1 -9.72164,0 4.8608236,4.8608236 0 1 1 9.72164,0 z"
     sodipodi:ry="4.8608236"
     sodipodi:rx="4.8608236"
     sodipodi:cy="113.13331"
     sodipodi:cx="491.69098"
     id="path3997-70"
     style="fill:#000000;fill-opacity:1;stroke:none"
     sodipodi:type="arc" />
  <path
     transform="matrix(1.5,0,0,1.5,-128.4379,-59.931839)"
     d="m 496.5518,113.13331 a 4.8608236,4.8608236 0 1 1 -9.72164,0 4.8608236,4.8608236 0 1 1 9.72164,0 z"
     sodipodi:ry="4.8608236"
     sodipodi:rx="4.8608236"
     sodipodi:cy="113.13331"
     sodipodi:cx="491.69098"
     id="path3997-72"
     style="fill:#000000;fill-opacity:1;stroke:none"
     sodipodi:type="arc" />
</svg>
