<?xml version="1.0" encoding="UTF-8" standalone="no"?>
<!-- Created with Inkscape (http://www.inkscape.org/) -->

<svg
   xmlns:dc="http://purl.org/dc/elements/1.1/"
   xmlns:cc="http://creativecommons.org/ns#"
   xmlns:rdf="http://www.w3.org/1999/02/22-rdf-syntax-ns#"
   xmlns:svg="http://www.w3.org/2000/svg"
   xmlns="http://www.w3.org/2000/svg"
   xmlns:sodipodi="http://sodipodi.sourceforge.net/DTD/sodipodi-0.dtd"
   xmlns:inkscape="http://www.inkscape.org/namespaces/inkscape"
   width="669.01202"
   height="460.20355"
   id="svg2"
   version="1.1"
   inkscape:version="0.48.3.1 r9886"
   sodipodi:docname="expDiagram.svg">
  <defs
     id="defs4">
    <marker
       style="overflow:visible"
       id="Arrow1MendS"
       refX="0"
       refY="0"
       orient="auto"
       inkscape:stockid="Arrow1MendS">
      <path
         inkscape:connector-curvature="0"
         transform="matrix(-0.4,0,0,-0.4,-4,0)"
         style="fill:#000000;fill-rule:evenodd;stroke:#000000;stroke-width:1pt"
         d="M 0,0 5,-5 -12.5,0 5,5 0,0 z"
         id="path6228" />
    </marker>
  </defs>
  <sodipodi:namedview
     id="base"
     pagecolor="#ffffff"
     bordercolor="#666666"
     borderopacity="1.0"
     inkscape:pageopacity="0.0"
     inkscape:pageshadow="2"
     inkscape:zoom="1.4"
     inkscape:cx="324.74906"
     inkscape:cy="205.84226"
     inkscape:document-units="px"
     inkscape:current-layer="layer1"
     showgrid="false"
     inkscape:window-width="1920"
     inkscape:window-height="1012"
     inkscape:window-x="0"
     inkscape:window-y="34"
     inkscape:window-maximized="1"
     fit-margin-top="0"
     fit-margin-left="0"
     fit-margin-right="0"
     fit-margin-bottom="0" />
  <metadata
     id="metadata7">
    <rdf:RDF>
      <cc:Work
         rdf:about="">
        <dc:format>image/svg+xml</dc:format>
        <dc:type
           rdf:resource="http://purl.org/dc/dcmitype/StillImage" />
        <dc:title></dc:title>
      </cc:Work>
    </rdf:RDF>
  </metadata>
  <g
     inkscape:label="Layer 1"
     inkscape:groupmode="layer"
     id="layer1"
     transform="translate(-48.522971,-236.18384)">
    <path
       sodipodi:nodetypes="cc"
       inkscape:connector-curvature="0"
       id="path5634"
       d="m 568.57685,438.40875 c -31.14045,2.63527 -47.46382,-9.15663 -40.75613,-43.3735"
       style="fill:none;stroke:#000000;stroke-width:2;stroke-linecap:butt;stroke-linejoin:miter;stroke-miterlimit:10;stroke-opacity:1;stroke-dasharray:none" />
    <path
       style="fill-rule:nonzero;stroke:#000000;stroke-width:1;stroke-linecap:butt;stroke-linejoin:round;stroke-dasharray:4, 3"
       inkscape:connector-curvature="0"
       id="path53"
       d="m 152.80348,619.42717 563.79673,61.95287"
       sodipodi:nodetypes="cc" />
    <path
       style="fill-rule:nonzero;stroke:#000000;stroke-width:1;stroke-linecap:butt;stroke-linejoin:round;stroke-dasharray:4, 3"
       inkscape:connector-curvature="0"
       id="path25"
       d="M 142.95449,571.27198 498.55399,236.87082"
       sodipodi:nodetypes="cc" />
    <path
       style="fill:#ffffff;fill-opacity:1;stroke:#000000;stroke-width:2.15796518;stroke-linecap:butt;stroke-linejoin:miter;stroke-miterlimit:5.5;stroke-opacity:1;stroke-dasharray:none"
       d="m 144.66802,607.99224 c 12.5319,19.58782 18.84507,5.94314 23.72929,3.03382 -4.25399,-19.50246 -10.00405,-35.92717 -16.89297,-50.00908 -8.50825,0.0481 -19.2981,-6.61298 -16.28091,17.49672"
       id="path4206"
       inkscape:connector-curvature="0"
       sodipodi:nodetypes="cccc" />
    <path
       inkscape:connector-curvature="0"
       id="path5068"
       d="M 126.24192,590.96382 614.47505,352.52103"
       style="fill:none;stroke:#000000;stroke-width:2.5;stroke-linecap:butt;stroke-linejoin:miter;stroke-miterlimit:10;stroke-opacity:1;stroke-dasharray:none;marker-end:url(#Arrow1MendS)"
       sodipodi:nodetypes="cc" />
    <path
       style="fill-rule:evenodd;stroke:#000000;stroke-width:2;stroke-linecap:butt;stroke-linejoin:round;stroke-dasharray:8, 6"
       inkscape:connector-curvature="0"
       id="path15"
       d="M 568.33563,433.21331 482.36145,564.86672" />
    <path
       style="fill:#000000;fill-rule:evenodd;stroke:#000000;stroke-width:2;stroke-linecap:butt"
       inkscape:connector-curvature="0"
       id="path17"
       d="m 479.59549,563.06048 -2.19669,9.40558 7.72855,-5.79309 z" />
    <path
       style="fill:#cfe2f3;fill-rule:nonzero"
       inkscape:connector-curvature="0"
       id="path23"
       d="m 717.44303,236.45741 0,167.62204 -268.9449,-167.62204 z" />
    <path
       inkscape:connector-curvature="0"
       style="fill-rule:evenodd;stroke:#000000;stroke-width:2;stroke-linecap:butt;stroke-linejoin:round;stroke-miterlimit:10;stroke-dasharray:2, 2;stroke-dashoffset:0"
       id="path45"
       d="m 566.86868,438.98573 49.20605,-76.18735" />
    <path
       style="fill:#000000;fill-rule:evenodd;stroke:#000000;stroke-width:2;stroke-linecap:butt"
       inkscape:connector-curvature="0"
       id="path47"
       d="m 618.84976,364.59063 2.14917,-9.41654 -7.69922,5.83202 z" />
    <path
       style="fill:#ff0000;fill-rule:nonzero"
       inkscape:connector-curvature="0"
       id="path55"
       d="m 568.12323,432.8511 0,0 c 2.79187,0 5.05511,2.26326 5.05511,5.05513 l 0,0 c 0,1.3407 -0.53259,2.62648 -1.48059,3.57449 -0.94799,0.94803 -2.23382,1.48062 -3.57452,1.48062 l 0,0 c -2.79187,0 -5.05511,-2.26326 -5.05511,-5.05511 l 0,0 c 0,-2.79187 2.26324,-5.05513 5.05511,-5.05513 z" />
    <path
       style="fill:#ff0000;fill-opacity:1;fill-rule:nonzero;stroke:#000000;stroke-width:1;stroke-linecap:butt;stroke-linejoin:round"
       inkscape:connector-curvature="0"
       id="path57"
       d="m 568.12323,432.8511 0,0 c 2.79187,0 5.05511,2.26326 5.05511,5.05513 l 0,0 c 0,1.3407 -0.53259,2.62648 -1.48059,3.57449 -0.94799,0.94803 -2.23382,1.48062 -3.57452,1.48062 l 0,0 c -2.79187,0 -5.05511,-2.26326 -5.05511,-5.05511 l 0,0 c 0,-2.79187 2.26324,-5.05513 5.05511,-5.05513 z" />
    <path
       style="fill-rule:nonzero;stroke:#000000;stroke-width:3;stroke-linecap:butt;stroke-linejoin:round"
       inkscape:connector-curvature="0"
       id="path71"
       d="M 448.00724,237.68384 716.035,403.08289"
       sodipodi:nodetypes="cc" />
    <path
       style="fill-rule:nonzero;stroke:#000000;stroke-width:2;stroke-linecap:butt;stroke-linejoin:round;stroke-dasharray:2, 6"
       inkscape:connector-curvature="0"
       id="path59"
       d="m 612.41959,260.48627 -36.50397,55.87401" />
    <path
       style="fill:#ff0000;fill-rule:nonzero"
       inkscape:connector-curvature="0"
       id="path61"
       d="m 611.16493,266.62088 0,0 c -2.79181,0 -5.05511,-2.26325 -5.05511,-5.05511 l 0,0 c 0,-1.3407 0.53259,-2.62649 1.48065,-3.57451 0.948,-0.94802 2.23376,-1.48061 3.57446,-1.48061 l 0,0 c 2.79187,0 5.05511,2.26325 5.05511,5.05512 l 0,0 c 0,2.79186 -2.26324,5.05511 -5.05511,5.05511 z" />
    <path
       style="fill:#ff0000;fill-opacity:1;fill-rule:nonzero;stroke:#000000;stroke-width:1;stroke-linecap:butt;stroke-linejoin:round"
       inkscape:connector-curvature="0"
       id="path63"
       d="m 611.16493,266.62088 0,0 c -2.79181,0 -5.05511,-2.26325 -5.05511,-5.05511 l 0,0 c 0,-1.3407 0.53259,-2.62649 1.48065,-3.57451 0.948,-0.94802 2.23376,-1.48061 3.57446,-1.48061 l 0,0 c 2.79187,0 5.05511,2.26325 5.05511,5.05512 l 0,0 c 0,2.79186 -2.26324,5.05511 -5.05511,5.05511 z" />
    <path
       style="fill-rule:nonzero;stroke:#000000;stroke-width:2;stroke-linecap:butt;stroke-linejoin:round;stroke-dasharray:2, 6"
       inkscape:connector-curvature="0"
       id="path65"
       d="M 488.68976,340.59727 525.1937,284.72326" />
    <path
       style="fill:#ff0000;fill-rule:nonzero"
       inkscape:connector-curvature="0"
       id="path67"
       d="m 489.94433,334.46265 0,0 c 2.79187,0 5.05511,2.26326 5.05511,5.05512 l 0,0 c 0,1.3407 -0.53259,2.62649 -1.48059,3.57451 -0.94802,0.94802 -2.23382,1.4806 -3.57452,1.4806 l 0,0 c -2.79187,0 -5.05511,-2.26325 -5.05511,-5.05511 l 0,0 c 0,-2.79186 2.26324,-5.05512 5.05511,-5.05512 z" />
    <path
       style="fill:#ff0000;fill-opacity:1;fill-rule:nonzero;stroke:#000000;stroke-width:1;stroke-linecap:butt;stroke-linejoin:round"
       inkscape:connector-curvature="0"
       id="path69"
       d="m 489.94433,334.46265 0,0 c 2.79187,0 5.05511,2.26326 5.05511,5.05512 l 0,0 c 0,1.3407 -0.53259,2.62649 -1.48059,3.57451 -0.94802,0.94802 -2.23382,1.4806 -3.57452,1.4806 l 0,0 c -2.79187,0 -5.05511,-2.26325 -5.05511,-5.05511 l 0,0 c 0,-2.79186 2.26324,-5.05512 5.05511,-5.05512 z" />
    <path
       style="fill-rule:nonzero;stroke:#000000;stroke-width:2;stroke-linecap:butt;stroke-linejoin:round;stroke-dasharray:2, 6"
       inkscape:connector-curvature="0"
       id="path73"
       d="m 690.827,354.98818 -13.76379,24.44095" />
    <path
       style="fill:#ff0000;fill-rule:nonzero"
       inkscape:connector-curvature="0"
       id="path75"
       d="m 690.31967,350.73625 0,0 c 2.79187,0 5.05511,2.26325 5.05511,5.05511 l 0,0 c 0,1.3407 -0.53259,2.62649 -1.48059,3.57451 -0.94806,0.94802 -2.23382,1.48061 -3.57452,1.48061 l 0,0 c -2.79187,0 -5.05511,-2.26326 -5.05511,-5.05512 l 0,0 c 0,-2.79186 2.26324,-5.05511 5.05511,-5.05511 z" />
    <path
       style="fill:#ff0000;fill-opacity:1;fill-rule:nonzero;stroke:#000000;stroke-width:1;stroke-linecap:butt;stroke-linejoin:round"
       inkscape:connector-curvature="0"
       id="path77"
       d="m 690.31967,350.73625 0,0 c 2.79187,0 5.05511,2.26325 5.05511,5.05511 l 0,0 c 0,1.3407 -0.53259,2.62649 -1.48059,3.57451 -0.94806,0.94802 -2.23382,1.48061 -3.57452,1.48061 l 0,0 c -2.79187,0 -5.05511,-2.26326 -5.05511,-5.05512 l 0,0 c 0,-2.79186 2.26324,-5.05511 5.05511,-5.05511 z" />
    <path
       style="fill-rule:nonzero;stroke:#000000;stroke-width:2;stroke-linecap:butt;stroke-linejoin:round;stroke-dasharray:2, 6"
       inkscape:connector-curvature="0"
       id="path79"
       d="M 623.80013,294.41078 600.52456,331.0407" />
    <path
       style="fill:#ff0000;fill-rule:nonzero"
       inkscape:connector-curvature="0"
       id="path81"
       d="m 623.54629,299.4265 0,0 c -2.79187,0 -5.05511,-2.26325 -5.05511,-5.05512 l 0,0 c 0,-1.3407 0.53259,-2.62649 1.48059,-3.5745 0.94806,-0.94802 2.23382,-1.48061 3.57452,-1.48061 l 0,0 c 2.79187,0 5.05511,2.26325 5.05511,5.05511 l 0,0 c 0,2.79187 -2.26324,5.05512 -5.05511,5.05512 z" />
    <path
       style="fill:#ff0000;fill-opacity:1;fill-rule:nonzero;stroke:#000000;stroke-width:1;stroke-linecap:butt;stroke-linejoin:round"
       inkscape:connector-curvature="0"
       id="path83"
       d="m 623.54629,299.4265 0,0 c -2.79187,0 -5.05511,-2.26325 -5.05511,-5.05512 l 0,0 c 0,-1.3407 0.53259,-2.62649 1.48059,-3.5745 0.94806,-0.94802 2.23382,-1.48061 3.57452,-1.48061 l 0,0 c 2.79187,0 5.05511,2.26325 5.05511,5.05511 l 0,0 c 0,2.79187 -2.26324,5.05512 -5.05511,5.05512 z" />
    <path
       style="fill-rule:nonzero;stroke:#000000;stroke-width:2;stroke-linecap:butt;stroke-linejoin:round;stroke-dasharray:2, 6"
       inkscape:connector-curvature="0"
       id="path85"
       d="m 641.96609,380.17979 9.92126,-15.93701" />
    <path
       style="fill:#ff0000;fill-rule:nonzero"
       inkscape:connector-curvature="0"
       id="path87"
       d="m 641.83423,375.25334 0,0 c 2.79187,0 5.05511,2.26324 5.05511,5.05511 l 0,0 c 0,1.3407 -0.53259,2.6265 -1.48059,3.57451 -0.94799,0.94802 -2.23382,1.48061 -3.57452,1.48061 l 0,0 c -2.79187,0 -5.05511,-2.26325 -5.05511,-5.05512 l 0,0 c 0,-2.79187 2.26324,-5.05511 5.05511,-5.05511 z" />
    <path
       style="fill:#ff0000;fill-opacity:1;fill-rule:nonzero;stroke:#000000;stroke-width:1;stroke-linecap:butt;stroke-linejoin:round"
       inkscape:connector-curvature="0"
       id="path89"
       d="m 641.83423,375.25334 0,0 c 2.79187,0 5.05511,2.26324 5.05511,5.05511 l 0,0 c 0,1.3407 -0.53259,2.6265 -1.48059,3.57451 -0.94799,0.94802 -2.23382,1.48061 -3.57452,1.48061 l 0,0 c -2.79187,0 -5.05511,-2.26325 -5.05511,-5.05512 l 0,0 c 0,-2.79187 2.26324,-5.05511 5.05511,-5.05511 z" />
    <path
       style="fill-rule:nonzero;stroke:#000000;stroke-width:2;stroke-linecap:butt;stroke-linejoin:round;stroke-dasharray:2, 6"
       inkscape:connector-curvature="0"
       id="path91"
       d="m 666.16223,450.88336 36.50391,-55.87401" />
    <path
       style="fill:#ff0000;fill-rule:nonzero"
       inkscape:connector-curvature="0"
       id="path93"
       d="m 667.41678,444.74874 0,0 c 2.79187,0 5.05511,2.26324 5.05511,5.05511 l 0,0 c 0,1.3407 -0.53259,2.6265 -1.48059,3.57451 -0.94806,0.94802 -2.23382,1.48061 -3.57452,1.48061 l 0,0 c -2.79187,0 -5.05511,-2.26325 -5.05511,-5.05512 l 0,0 c 0,-2.79187 2.26324,-5.05511 5.05511,-5.05511 z" />
    <path
       style="fill:#ff0000;fill-opacity:1;fill-rule:nonzero;stroke:#000000;stroke-width:1;stroke-linecap:butt;stroke-linejoin:round"
       inkscape:connector-curvature="0"
       id="path95"
       d="m 667.41678,444.74874 0,0 c 2.79187,0 5.05511,2.26324 5.05511,5.05511 l 0,0 c 0,1.3407 -0.53259,2.6265 -1.48059,3.57451 -0.94806,0.94802 -2.23382,1.48061 -3.57452,1.48061 l 0,0 c -2.79187,0 -5.05511,-2.26325 -5.05511,-5.05512 l 0,0 c 0,-2.79187 2.26324,-5.05511 5.05511,-5.05511 z" />
    <path
       style="fill-rule:nonzero;stroke:#000000;stroke-width:2;stroke-linecap:butt;stroke-linejoin:round;stroke-dasharray:2, 6"
       inkscape:connector-curvature="0"
       id="path97"
       d="m 537.72193,315.36351 9.92126,-15.93701" />
    <path
       style="fill:#ff0000;fill-rule:nonzero"
       inkscape:connector-curvature="0"
       id="path99"
       d="m 537.59018,310.43706 0,0 c 2.79187,0 5.05511,2.26325 5.05511,5.05512 l 0,0 c 0,1.3407 -0.53259,2.62649 -1.48059,3.57451 -0.94806,0.94801 -2.23382,1.48061 -3.57452,1.48061 l 0,0 c -2.79187,0 -5.05511,-2.26326 -5.05511,-5.05512 l 0,0 c 0,-2.79187 2.26324,-5.05512 5.05511,-5.05512 z" />
    <path
       style="fill:#ff0000;fill-opacity:1;fill-rule:nonzero;stroke:#000000;stroke-width:1;stroke-linecap:butt;stroke-linejoin:round"
       inkscape:connector-curvature="0"
       id="path101"
       d="m 537.59018,310.43706 0,0 c 2.79187,0 5.05511,2.26325 5.05511,5.05512 l 0,0 c 0,1.3407 -0.53259,2.62649 -1.48059,3.57451 -0.94806,0.94801 -2.23382,1.48061 -3.57452,1.48061 l 0,0 c -2.79187,0 -5.05511,-2.26326 -5.05511,-5.05512 l 0,0 c 0,-2.79187 2.26324,-5.05512 5.05511,-5.05512 z" />
    <path
       style="fill-rule:nonzero;stroke:#000000;stroke-width:2;stroke-linecap:butt;stroke-linejoin:round;stroke-dasharray:2, 6"
       inkscape:connector-curvature="0"
       id="path103"
       d="m 509.30887,252.55255 -9.92123,15.937" />
    <path
       style="fill:#ff0000;fill-rule:nonzero"
       inkscape:connector-curvature="0"
       id="path105"
       d="m 509.44067,257.47899 0,0 c -2.79184,0 -5.05511,-2.26325 -5.05511,-5.05511 l 0,0 c 0,-1.3407 0.53259,-2.62649 1.48062,-3.57451 0.94803,-0.94802 2.23379,-1.48061 3.57449,-1.48061 l 0,0 c 2.79187,0 5.05515,2.26325 5.05515,5.05512 l 0,0 c 0,2.79186 -2.26328,5.05511 -5.05515,5.05511 z" />
    <path
       style="fill:#ff0000;fill-opacity:1;fill-rule:nonzero;stroke:#000000;stroke-width:1;stroke-linecap:butt;stroke-linejoin:round;stroke-opacity:1"
       inkscape:connector-curvature="0"
       id="path107"
       d="m 509.44067,257.47899 0,0 c -2.79184,0 -5.05511,-2.26325 -5.05511,-5.05511 l 0,0 c 0,-1.3407 0.53259,-2.62649 1.48062,-3.57451 0.94803,-0.94802 2.23379,-1.48061 3.57449,-1.48061 l 0,0 c 2.79187,0 5.05515,2.26325 5.05515,5.05512 l 0,0 c 0,2.79186 -2.26328,5.05511 -5.05515,5.05511 z" />
    <g
       transform="matrix(0.43848654,0,0,0.43848654,-82.993984,460.53598)"
       id="g3009">
      <g
         style="font-style:normal;font-variant:normal;font-weight:normal;font-stretch:normal;letter-spacing:normal;word-spacing:normal;text-anchor:start;fill:none;stroke:#000000;stroke-linecap:butt;stroke-linejoin:miter;stroke-miterlimit:10.43299961;stroke-opacity:1;stroke-dasharray:none;stroke-dashoffset:0"
         id="g3011"
         transform="matrix(1.0629921,0,0,-1.0629921,-186.02362,789.27165)"
         xml:space="preserve"
         stroke-miterlimit="10.433"
         font-style="normal"
         font-variant="normal"
         font-weight="normal"
         font-stretch="normal"
         font-size-adjust="none"
         letter-spacing="normal"
         word-spacing="normal"><path
           style="fill:#000000;stroke-width:0"
           inkscape:connector-curvature="0"
           d="m 465.88,415.87 0.11,-0.02 0.13,-0.02 0.14,-0.03 0.16,-0.04 0.16,-0.04 0.18,-0.04 0.19,-0.05 0.2,-0.06 0.21,-0.06 0.21,-0.07 0.21,-0.08 0.22,-0.08 0.22,-0.1 0.22,-0.1 0.22,-0.11 0.22,-0.12 0.22,-0.14 0.21,-0.14 0.2,-0.15 0.2,-0.16 0.19,-0.18 0.18,-0.19 0.17,-0.2 0.16,-0.21 0.14,-0.22 0.07,-0.12 0.06,-0.12 0.06,-0.13 0.05,-0.12 0.05,-0.14 0.05,-0.13 0.04,-0.14 0.03,-0.14 0.03,-0.15 0.03,-0.15 0.02,-0.16 0.01,-0.15 0.01,-0.17 0.01,-0.16 c 0,-2.53 -1.75,-4.53 -5.63,-4.53 -4.19,0 -5.98,2.84 -6.94,7.07 -0.14,0.64 -0.18,0.85 -0.68,0.85 -0.66,0 -0.66,-0.35 -0.66,-1.25 v -6.58 c 0,-0.84 0,-1.19 0.55,-1.19 0.25,0 0.29,0.05 1.25,1 0.09,0.1 0.09,0.19 1,1.14 2.18,-2.09 4.43,-2.14 5.48,-2.14 5.72,0 8.02,3.35 8.02,6.92 0,2.64 -1.5,4.14 -2.1,4.74 -1.64,1.59 -3.59,2 -5.68,2.39 -2.79,0.55 -6.13,1.2 -6.13,4.09 0,1.74 1.3,3.78 5.58,3.78 5.48,0 5.73,-4.48 5.83,-6.03 0.06,-0.45 0.5,-0.45 0.61,-0.45 0.64,0 0.64,0.25 0.64,1.2 v 5.03 c 0,0.85 0,1.19 -0.55,1.19 -0.25,0 -0.34,0 -1,-0.59 -0.14,-0.21 -0.64,-0.64 -0.84,-0.8 -1.89,1.39 -3.94,1.39 -4.69,1.39 -6.08,0 -7.97,-3.33 -7.97,-6.12 0,-1.74 0.8,-3.14 2.14,-4.24 1.59,-1.29 3,-1.59 6.58,-2.28 z"
           id="path3013" /><path
           style="fill:#000000;stroke-width:0"
           inkscape:connector-curvature="0"
           d="m 480.73,417.71 0.05,1.05 c 0.29,7.42 4.48,8.66 6.18,8.66 5.13,0 5.63,-6.72 5.63,-8.66 h -11.81 l -0.05,-1.05 h 13.91 c 1.09,0 1.23,0 1.23,1.05 0,4.92 -2.69,9.75 -8.91,9.75 -5.78,0 -10.37,-5.12 -10.37,-11.36 0,-6.67 5.23,-11.5 10.97,-11.5 6.08,0 8.31,5.53 8.31,6.47 0,0.5 -0.39,0.61 -0.64,0.61 -0.45,0 -0.55,-0.3 -0.66,-0.7 -1.73,-5.13 -6.21,-5.13 -6.71,-5.13 -2.5,0 -4.49,1.49 -5.63,3.33 -1.5,2.39 -1.5,5.69 -1.5,7.48 z"
           id="path3015" /><path
           style="fill:#000000;stroke-width:0"
           inkscape:connector-curvature="0"
           d="m 502.76,423.34 v -13.36 c 0,-2.23 -0.55,-2.23 -3.89,-2.23 v -1.55 c 1.75,0.05 4.28,0.16 5.63,0.16 1.29,0 3.89,-0.11 5.57,-0.16 v 1.55 c -3.32,0 -3.87,0 -3.87,2.23 v 9.17 c 0,5.19 3.53,7.97 6.72,7.97 3.14,0 3.68,-2.69 3.68,-5.53 v -11.61 c 0,-2.23 -0.54,-2.23 -3.88,-2.23 v -1.55 c 1.75,0.05 4.29,0.16 5.63,0.16 1.3,0 3.88,-0.11 5.58,-0.16 v 1.55 c -2.59,0 -3.84,0 -3.89,1.5 v 9.51 c 0,4.28 0,5.83 -1.54,7.61 -0.69,0.86 -2.35,1.84 -5.22,1.84 -3.64,0 -5.99,-2.14 -7.38,-5.21 v 5.21 l -7.03,-0.54 v -1.55 c 3.49,0 3.89,-0.34 3.89,-2.78 z"
           id="path3017" /><path
           style="fill:#000000;stroke-width:0"
           inkscape:connector-curvature="0"
           d="m 535.35,415.87 0.12,-0.02 0.12,-0.02 0.15,-0.03 0.15,-0.04 0.17,-0.04 0.18,-0.04 0.19,-0.05 0.2,-0.06 0.2,-0.06 0.21,-0.07 0.22,-0.08 0.22,-0.08 0.22,-0.1 0.22,-0.1 0.22,-0.11 0.22,-0.12 0.21,-0.14 0.22,-0.14 0.2,-0.15 0.2,-0.16 0.19,-0.18 0.18,-0.19 0.17,-0.2 0.16,-0.21 0.14,-0.22 0.07,-0.12 0.06,-0.12 0.06,-0.13 0.05,-0.12 0.05,-0.14 0.04,-0.13 0.05,-0.14 0.03,-0.14 0.03,-0.15 0.03,-0.15 0.02,-0.16 0.01,-0.15 0.01,-0.17 0,-0.16 c 0,-2.53 -1.75,-4.53 -5.62,-4.53 -4.19,0 -5.99,2.84 -6.94,7.07 -0.14,0.64 -0.19,0.85 -0.69,0.85 -0.65,0 -0.65,-0.35 -0.65,-1.25 v -6.58 c 0,-0.84 0,-1.19 0.54,-1.19 0.25,0 0.3,0.05 1.25,1 0.1,0.1 0.1,0.19 1,1.14 2.19,-2.09 4.44,-2.14 5.49,-2.14 5.72,0 8.01,3.35 8.01,6.92 0,2.64 -1.5,4.14 -2.09,4.74 -1.64,1.59 -3.59,2 -5.69,2.39 -2.78,0.55 -6.12,1.2 -6.12,4.09 0,1.74 1.29,3.78 5.57,3.78 5.49,0 5.74,-4.48 5.83,-6.03 0.07,-0.45 0.5,-0.45 0.61,-0.45 0.64,0 0.64,0.25 0.64,1.2 v 5.03 c 0,0.85 0,1.19 -0.54,1.19 -0.25,0 -0.35,0 -1,-0.59 -0.14,-0.21 -0.64,-0.64 -0.85,-0.8 -1.89,1.39 -3.94,1.39 -4.69,1.39 -6.07,0 -7.96,-3.33 -7.96,-6.12 0,-1.74 0.79,-3.14 2.14,-4.24 1.59,-1.29 3,-1.59 6.57,-2.28 z"
           id="path3019" /><path
           style="fill:#000000;stroke-width:0"
           inkscape:connector-curvature="0"
           d="m 568.15,416.86 -0.02,0.59 -0.04,0.59 -0.07,0.58 -0.1,0.57 -0.13,0.56 -0.14,0.55 -0.18,0.54 -0.2,0.53 -0.22,0.51 -0.25,0.5 -0.26,0.49 -0.29,0.47 -0.31,0.46 -0.33,0.44 -0.35,0.43 -0.36,0.4 -0.39,0.39 -0.4,0.37 -0.41,0.35 -0.44,0.32 -0.44,0.31 -0.46,0.28 -0.48,0.26 -0.49,0.24 -0.49,0.21 -0.51,0.18 -0.53,0.16 -0.53,0.13 -0.54,0.11 -0.54,0.07 -0.56,0.05 -0.56,0.01 -0.05,-1.09 c 2.19,0 4.33,-1.1 5.63,-3.24 1.29,-2.14 1.29,-5.03 1.29,-6.92 0,-1.8 0,-4.48 -1.09,-6.67 -1.09,-2.25 -3.28,-3.69 -5.78,-3.69 h 0 c -2.14,0 -4.33,1.05 -5.67,3.33 -1.25,2.2 -1.25,5.23 -1.25,7.03 0,1.94 0,4.63 1.19,6.83 1.35,2.28 3.68,3.33 5.68,3.33 l 0.05,1.09 c -6.22,0 -11.06,-5.42 -11.06,-11.65 0,-6.43 5.18,-11.21 11.01,-11.21 6.03,0 11.07,4.88 11.07,11.21 z"
           id="path3021" /><path
           style="fill:#000000;stroke-width:0"
           inkscape:connector-curvature="0"
           d="m 577.95,422.75 v 5.46 l -6.93,-0.54 v -1.55 c 3.49,0 3.89,-0.34 3.89,-2.78 v -13.36 c 0,-2.23 -0.54,-2.23 -3.89,-2.23 v -1.55 c 1.96,0.05 4.28,0.16 5.69,0.16 1.99,0 4.33,0 6.33,-0.16 v 1.55 h -1.05 c -3.69,0 -3.79,0.54 -3.79,2.34 v 7.67 c 0,4.92 2.09,9.36 5.89,9.36 0.34,0 0.43,0 0.54,-0.05 -0.15,-0.04 -1.15,-0.64 -1.15,-1.93 0,-1.41 1.04,-2.14 2.15,-2.14 0.89,0 2.14,0.59 2.14,2.18 0,1.6 -1.54,3.03 -3.68,3.03 -3.64,0 -5.44,-3.32 -6.14,-5.46 z"
           id="path3023" /></g>    </g>
    <g
       transform="matrix(0.7,0,0,0.7,175.90985,242.26196)"
       id="g3073">
      <g
         style="font-style:normal;font-variant:normal;font-weight:normal;font-stretch:normal;letter-spacing:normal;word-spacing:normal;text-anchor:start;fill:none;stroke:#000000;stroke-linecap:butt;stroke-linejoin:miter;stroke-miterlimit:10.43299961;stroke-opacity:1;stroke-dasharray:none;stroke-dashoffset:0"
         id="g3075"
         transform="matrix(1.0629921,0,0,-1.0629921,-186.02362,789.27165)"
         xml:space="preserve"
         stroke-miterlimit="10.433"
         font-style="normal"
         font-variant="normal"
         font-weight="normal"
         font-stretch="normal"
         font-size-adjust="none"
         letter-spacing="normal"
         word-spacing="normal"><path
           style="fill:#000000;stroke-width:0"
           inkscape:connector-curvature="0"
           d="m 481.22,440.23 0,0 0,0.01 0,0 0,0.01 0,0.02 0,0.01 0,0.02 0,0.02 -0.01,0.02 0,0.02 -0.01,0.02 0,0.02 -0.01,0.02 -0.01,0.03 -0.01,0.02 -0.01,0.03 -0.02,0.02 -0.01,0.03 -0.02,0.02 -0.02,0.02 -0.02,0.03 -0.02,0.01 -0.01,0.01 -0.01,0.01 -0.02,0.01 -0.01,0.01 -0.02,0.01 -0.01,0.01 -0.02,0.01 -0.01,0.01 -0.02,0.01 -0.02,0 -0.02,0.01 -0.02,0.01 -0.02,0 -0.02,0.01 -0.03,0.01 -0.02,0 -0.02,0 -0.03,0.01 -0.03,0 -0.02,0 -0.03,0.01 -0.03,0 -0.03,0 c -0.75,0 -5.48,-0.46 -6.33,-0.55 -0.4,-0.05 -0.7,-0.3 -0.7,-0.95 0,-0.6 0.45,-0.6 1.2,-0.6 2.39,0 2.49,-0.34 2.49,-0.84 l -0.14,-1 -3,-11.81 c -0.89,1.84 -2.35,3.18 -4.58,3.18 l 0.05,-1.09 c 3.23,0 3.93,-4.08 3.93,-4.37 0,-0.32 -0.09,-0.61 -0.14,-0.86 l -2.5,-9.77 c -0.25,-0.89 -0.25,-0.98 -1,-1.84 -2.18,-2.74 -4.23,-3.53 -5.62,-3.53 -2.49,0 -3.19,2.73 -3.19,4.68 0,2.49 1.59,8.61 2.74,10.91 1.54,2.94 3.79,4.78 5.78,4.78 l -0.05,1.09 c -5.83,0 -12,-7.31 -12,-14.59 0,-4.69 2.73,-7.97 6.62,-7.97 0.99,0 3.49,0.21 6.47,3.74 0.41,-2.1 2.14,-3.74 4.53,-3.74 1.75,0 2.9,1.14 3.69,2.74 0.85,1.79 1.5,4.84 1.5,4.93 0,0.5 -0.45,0.5 -0.59,0.5 -0.5,0 -0.55,-0.2 -0.7,-0.9 -0.85,-3.24 -1.75,-6.17 -3.79,-6.17 -1.34,0 -1.5,1.29 -1.5,2.29 0,1.19 0.1,1.55 0.3,2.39 z"
           id="path3077" /><path
           style="fill:#000000;stroke-width:0"
           inkscape:connector-curvature="0"
           d="m 492.74,420.54 0,0.05 -0.01,0.06 0,0.05 -0.01,0.06 -0.01,0.05 -0.02,0.06 -0.01,0.05 -0.02,0.06 -0.03,0.06 -0.02,0.05 -0.03,0.06 -0.03,0.05 -0.03,0.06 -0.04,0.05 -0.03,0.05 -0.05,0.05 -0.04,0.05 -0.05,0.05 -0.05,0.04 -0.05,0.05 -0.06,0.04 -0.06,0.03 -0.06,0.04 -0.06,0.03 -0.07,0.03 -0.07,0.03 -0.08,0.02 -0.08,0.02 -0.08,0.01 -0.08,0.01 -0.09,0.01 -0.09,0 c -0.94,0 -1.95,-0.91 -1.95,-1.92 0,-0.59 0.45,-1.33 1.41,-1.33 1,0 1.95,0.99 1.95,1.92 z"
           id="path3079" /><path
           style="fill:#000000;stroke-width:0"
           inkscape:connector-curvature="0"
           d="m 485.63,402.84 -0.05,-0.17 -0.06,-0.17 -0.03,-0.08 -0.02,-0.09 -0.03,-0.08 -0.02,-0.09 -0.02,-0.09 -0.02,-0.09 -0.02,-0.1 -0.01,-0.09 -0.02,-0.1 0,-0.05 -0.01,-0.05 0,-0.06 0,-0.05 0,-0.05 0,-0.06 c 0,-1.64 1.39,-2.95 3.29,-2.95 3.49,0 5.03,4.79 5.03,5.33 0,0.45 -0.45,0.45 -0.56,0.45 -0.48,0 -0.53,-0.2 -0.67,-0.59 -0.8,-2.79 -2.33,-4.22 -3.69,-4.22 -0.7,0 -0.87,0.45 -0.87,1.22 0,0.79 0.25,1.46 0.56,2.23 0.34,0.94 0.73,1.87 1.11,2.78 0.31,0.84 1.58,4.02 1.72,4.44 0.09,0.34 0.2,0.76 0.2,1.11 0,1.64 -1.39,2.95 -3.31,2.95 -3.45,0 -5.05,-4.73 -5.05,-5.33 0,-0.45 0.49,-0.45 0.6,-0.45 0.48,0 0.51,0.17 0.62,0.56 0.91,3 2.44,4.25 3.72,4.25 0.56,0 0.87,-0.28 0.87,-1.22 0,-0.79 -0.2,-1.32 -1.07,-3.48 z"
           id="path3081" /></g>    </g>
    <g
       id="g3122"
       transform="matrix(0.7,0,0,0.7,293.63109,198.97205)">
      <g
         id="content"
         transform="matrix(1.0629921,0,0,-1.0629921,-186.02362,789.27165)"
         xml:space="preserve"
         stroke-miterlimit="10.433"
         font-style="normal"
         font-variant="normal"
         font-weight="normal"
         font-stretch="normal"
         font-size-adjust="none"
         letter-spacing="normal"
         word-spacing="normal"
         style="font-style:normal;font-variant:normal;font-weight:normal;font-stretch:normal;letter-spacing:normal;word-spacing:normal;text-anchor:start;fill:none;stroke:#000000;stroke-linecap:butt;stroke-linejoin:miter;stroke-miterlimit:10.43299961;stroke-opacity:1;stroke-dasharray:none;stroke-dashoffset:0"><path
           d="m 479.29,417.96 -0.01,0.37 -0.01,0.35 -0.02,0.35 -0.02,0.34 -0.06,0.65 -0.09,0.63 -0.11,0.59 -0.14,0.57 -0.15,0.54 -0.18,0.51 -0.19,0.49 -0.21,0.45 -0.23,0.44 -0.25,0.4 -0.26,0.38 -0.27,0.36 -0.29,0.33 -0.3,0.31 -0.31,0.29 -0.31,0.26 -0.33,0.24 -0.34,0.22 -0.34,0.2 -0.35,0.18 -0.35,0.16 -0.36,0.14 -0.35,0.12 -0.36,0.11 -0.37,0.09 -0.36,0.06 -0.36,0.06 -0.35,0.04 -0.35,0.02 -0.35,0 -0.05,-1.09 c 4.94,0 4.94,-6.53 4.94,-10.41 0,-1.84 0,-4.73 0.09,-5.57 h 0 c -4.37,-3.85 -8.22,-4.39 -10.2,-4.39 -3,0 -4.49,2.25 -4.49,5.43 0,2.44 1.3,7.82 2.89,10.36 2.33,3.64 5.04,4.58 6.77,4.58 l 0.05,1.09 c -6.82,0 -13.39,-7.12 -13.39,-14.14 0,-4.64 2.98,-8.42 8.06,-8.42 3.14,0 6.73,1.14 10.51,4.19 0.66,-2.64 2.3,-4.19 4.54,-4.19 2.64,0 4.18,2.74 4.18,3.53 0,0.36 -0.29,0.5 -0.59,0.5 -0.36,0 -0.5,-0.14 -0.66,-0.5 -0.89,-2.43 -2.68,-2.43 -2.78,-2.43 -1.54,0 -1.54,3.89 -1.54,5.07 0,1.05 0,1.16 0.5,1.75 4.68,5.88 5.73,11.66 5.73,11.71 0,0.11 -0.06,0.5 -0.61,0.5 -0.5,0 -0.5,-0.14 -0.75,-1.05 -0.89,-3.14 -2.53,-6.92 -4.87,-9.86 z"
           id="path3125"
           inkscape:connector-curvature="0"
           style="fill:#000000;stroke-width:0" /><path
           d="m 498.74,420.54 0,0.05 -0.01,0.06 0,0.05 -0.01,0.06 -0.01,0.05 -0.02,0.06 -0.01,0.05 -0.02,0.06 -0.03,0.06 -0.02,0.05 -0.03,0.06 -0.03,0.05 -0.03,0.06 -0.04,0.05 -0.03,0.05 -0.05,0.05 -0.04,0.05 -0.05,0.05 -0.05,0.04 -0.05,0.05 -0.06,0.04 -0.06,0.03 -0.06,0.04 -0.06,0.03 -0.07,0.03 -0.07,0.03 -0.08,0.02 -0.08,0.02 -0.08,0.01 -0.08,0.01 -0.09,0.01 -0.09,0 c -0.94,0 -1.95,-0.91 -1.95,-1.92 0,-0.59 0.45,-1.33 1.41,-1.33 1,0 1.95,0.99 1.95,1.92 z"
           id="path3127"
           inkscape:connector-curvature="0"
           style="fill:#000000;stroke-width:0" /><path
           d="m 491.63,402.84 -0.05,-0.17 -0.06,-0.17 -0.03,-0.08 -0.02,-0.09 -0.03,-0.08 -0.02,-0.09 -0.02,-0.09 -0.02,-0.09 -0.02,-0.1 -0.01,-0.09 -0.02,-0.1 0,-0.05 -0.01,-0.05 0,-0.06 0,-0.05 0,-0.05 0,-0.06 c 0,-1.64 1.39,-2.95 3.29,-2.95 3.49,0 5.03,4.79 5.03,5.33 0,0.45 -0.45,0.45 -0.56,0.45 -0.48,0 -0.53,-0.2 -0.67,-0.59 -0.8,-2.79 -2.33,-4.22 -3.69,-4.22 -0.7,0 -0.87,0.45 -0.87,1.22 0,0.79 0.25,1.46 0.56,2.23 0.34,0.94 0.73,1.87 1.11,2.78 0.31,0.84 1.58,4.02 1.72,4.44 0.09,0.34 0.2,0.76 0.2,1.11 0,1.64 -1.39,2.95 -3.31,2.95 -3.45,0 -5.05,-4.73 -5.05,-5.33 0,-0.45 0.49,-0.45 0.6,-0.45 0.48,0 0.51,0.17 0.62,0.56 0.91,3 2.44,4.25 3.72,4.25 0.56,0 0.87,-0.28 0.87,-1.22 0,-0.79 -0.2,-1.32 -1.07,-3.48 z"
           id="path3129"
           inkscape:connector-curvature="0"
           style="fill:#000000;stroke-width:0" /></g>    </g>
    <g
       transform="matrix(0.7,0,0,0.7,295.40836,306.01076)"
       id="g3164">
      <g
         style="font-style:normal;font-variant:normal;font-weight:normal;font-stretch:normal;letter-spacing:normal;word-spacing:normal;text-anchor:start;fill:none;stroke:#000000;stroke-linecap:butt;stroke-linejoin:miter;stroke-miterlimit:10.43299961;stroke-opacity:1;stroke-dasharray:none;stroke-dashoffset:0"
         id="g3166"
         transform="matrix(1.0629921,0,0,-1.0629921,-186.02362,789.27165)"
         xml:space="preserve"
         stroke-miterlimit="10.433"
         font-style="normal"
         font-variant="normal"
         font-weight="normal"
         font-stretch="normal"
         font-size-adjust="none"
         letter-spacing="normal"
         word-spacing="normal"><path
           style="fill:#000000;stroke-width:0"
           inkscape:connector-curvature="0"
           d="m 459.91,409.14 -0.02,-0.07 -0.01,-0.08 -0.02,-0.07 -0.01,-0.08 -0.04,-0.16 -0.04,-0.16 -0.03,-0.16 -0.04,-0.16 -0.04,-0.16 -0.04,-0.16 -0.01,-0.08 -0.02,-0.07 -0.02,-0.07 -0.01,-0.07 -0.02,-0.07 -0.01,-0.07 -0.01,-0.06 -0.01,-0.06 -0.01,-0.06 -0.01,-0.05 -0.01,-0.05 -0.01,-0.04 -0.01,-0.04 0,-0.04 0,-0.03 0,-0.02 c 0,-0.89 0.7,-1.35 1.43,-1.35 0.61,0 1.5,0.39 1.85,1.39 0.06,0.11 0.65,2.44 0.95,3.69 l 1.1,4.48 c 0.29,1.1 0.59,2.19 0.84,3.35 0.2,0.84 0.61,2.28 0.66,2.48 0.75,1.55 3.39,6.08 8.1,6.08 2.25,0 2.71,-1.84 2.71,-3.48 0,-3.1 -2.46,-9.47 -3.25,-11.61 -0.44,-1.14 -0.49,-1.75 -0.49,-2.3 0,-2.33 1.74,-4.08 4.08,-4.08 4.69,0 6.53,7.27 6.53,7.67 0,0.5 -0.45,0.5 -0.61,0.5 -0.48,0 -0.48,-0.15 -0.73,-0.9 -1,-3.38 -2.64,-6.17 -5.09,-6.17 -0.85,0 -1.19,0.5 -1.19,1.64 0,1.25 0.45,2.45 0.89,3.54 0.95,2.64 3.05,8.11 3.05,10.96 0,3.34 -2.15,5.32 -5.74,5.32 -4.48,0 -6.92,-3.18 -7.76,-4.32 -0.25,2.79 -2.3,4.32 -4.6,4.32 -2.28,0 -3.23,-1.93 -3.73,-2.82 -0.8,-1.71 -1.5,-4.64 -1.5,-4.85 0,-0.5 0.5,-0.5 0.61,-0.5 0.5,0 0.54,0.07 0.84,1.16 0.84,3.53 1.84,5.92 3.64,5.92 0.99,0 1.55,-0.64 1.55,-2.28 0,-1.05 -0.16,-1.61 -0.8,-4.19 z"
           id="path3168" /><path
           style="fill:#000000;stroke-width:0"
           inkscape:connector-curvature="0"
           d="m 500.66,412.11 -0.11,-0.03 -0.11,-0.02 -0.11,-0.03 -0.11,-0.04 -0.1,-0.03 -0.09,-0.04 -0.09,-0.05 -0.09,-0.05 -0.08,-0.05 -0.08,-0.05 -0.07,-0.06 -0.08,-0.06 -0.06,-0.06 -0.07,-0.07 -0.06,-0.06 -0.05,-0.07 -0.05,-0.07 -0.05,-0.07 -0.05,-0.07 -0.04,-0.08 -0.03,-0.07 -0.04,-0.08 -0.03,-0.07 -0.03,-0.08 -0.02,-0.07 -0.02,-0.08 -0.02,-0.08 -0.01,-0.07 -0.01,-0.08 -0.01,-0.07 -0.01,-0.08 0,-0.07 c 0,-0.94 0.74,-1.28 1.36,-1.28 0.77,0 1.99,0.55 1.99,2.22 0,2.37 -2.72,3.03 -4.6,3.03 -5.23,0 -10.08,-4.8 -10.08,-9.64 0,-3 2.1,-6.06 6.46,-6.06 5.89,0 8.64,3.44 8.64,3.94 0,0.2 -0.31,0.59 -0.6,0.59 -0.2,0 -0.28,-0.08 -0.56,-0.36 -2.72,-3.2 -6.79,-3.2 -7.42,-3.2 -2.5,0 -3.62,1.7 -3.62,3.87 0,1 0.5,4.8 2.31,7.2 1.31,1.72 3.12,2.69 4.87,2.69 0.49,0 2.16,-0.06 3.03,-1.04 z"
           id="path3170" /></g>    </g>
    <g
       id="g3203"
       transform="matrix(0.7,0,0,0.7,359.65194,212.57803)">
      <g
         id="content-8"
         transform="matrix(1.0629921,0,0,-1.0629921,-186.02362,789.27165)"
         xml:space="preserve"
         stroke-miterlimit="10.433"
         font-style="normal"
         font-variant="normal"
         font-weight="normal"
         font-stretch="normal"
         font-size-adjust="none"
         letter-spacing="normal"
         word-spacing="normal"
         style="font-style:normal;font-variant:normal;font-weight:normal;font-stretch:normal;letter-spacing:normal;word-spacing:normal;text-anchor:start;fill:none;stroke:#000000;stroke-linecap:butt;stroke-linejoin:miter;stroke-miterlimit:10.43299961;stroke-opacity:1;stroke-dasharray:none;stroke-dashoffset:0"><path
           d="m 457.75,400.12 -0.03,-0.15 -0.04,-0.15 -0.03,-0.14 -0.03,-0.13 -0.04,-0.13 -0.03,-0.11 -0.04,-0.12 -0.03,-0.1 -0.04,-0.1 -0.04,-0.09 -0.04,-0.09 -0.05,-0.08 -0.05,-0.07 -0.05,-0.07 -0.06,-0.07 -0.06,-0.06 -0.07,-0.05 -0.07,-0.05 -0.08,-0.04 -0.09,-0.04 -0.09,-0.04 -0.1,-0.03 -0.11,-0.03 -0.12,-0.02 -0.13,-0.02 -0.06,-0.01 -0.07,-0.01 -0.07,-0.01 -0.08,-0.01 -0.07,0 -0.08,-0.01 -0.08,0 -0.09,-0.01 -0.08,0 -0.09,0 -0.1,0 -0.09,0 -0.1,-0.01 -0.1,0 c -0.6,0 -1.14,0 -1.14,-0.93 0,-0.41 0.25,-0.61 0.64,-0.61 1.36,0 2.79,0.15 4.18,0.15 1.64,0 3.35,-0.15 4.94,-0.15 0.25,0 0.89,0 0.89,1 0,0.54 -0.5,0.54 -1.19,0.54 -2.5,0 -2.5,0.36 -2.5,0.8 0,0.61 2.1,8.72 2.46,9.97 0.64,-1.44 2.03,-3.19 4.58,-3.19 l -0.05,1.1 c -3.3,0 -3.94,4.14 -3.94,4.43 0,0.1 0,0.21 0.14,0.8 l 2.46,9.77 c 0.34,1.34 1.68,2.73 2.57,3.48 1.75,1.55 3.21,1.89 4.05,1.89 1.98,0 3.19,-1.73 3.19,-4.69 0,-2.93 -1.64,-8.65 -2.55,-10.56 -1.69,-3.48 -4.08,-5.12 -5.92,-5.12 l 0.05,-1.1 c 5.78,0 12,7.27 12,14.6 0,4.68 -2.83,7.96 -6.63,7.96 -2.48,0 -4.87,-1.78 -6.51,-3.73 -0.5,2.69 -2.65,3.73 -4.49,3.73 -2.3,0 -3.25,-1.93 -3.69,-2.82 -0.9,-1.71 -1.54,-4.69 -1.54,-4.85 0,-0.5 0.5,-0.5 0.59,-0.5 0.5,0 0.55,0.07 0.84,1.16 0.86,3.53 1.85,5.92 3.64,5.92 0.85,0 1.55,-0.39 1.55,-2.28 0,-1.16 -0.15,-1.7 -0.34,-2.55 z"
           id="path3206"
           inkscape:connector-curvature="0"
           style="fill:#000000;stroke-width:0" /><path
           d="m 491.9,420.54 0,0.05 -0.01,0.06 0,0.05 -0.01,0.06 -0.01,0.05 -0.02,0.06 -0.01,0.05 -0.02,0.06 -0.03,0.06 -0.02,0.05 -0.03,0.06 -0.03,0.05 -0.03,0.06 -0.04,0.05 -0.03,0.05 -0.05,0.05 -0.04,0.05 -0.05,0.05 -0.05,0.04 -0.05,0.05 -0.06,0.04 -0.06,0.03 -0.06,0.04 -0.06,0.03 -0.07,0.03 -0.07,0.03 -0.08,0.02 -0.07,0.02 -0.09,0.01 -0.08,0.01 -0.09,0.01 -0.09,0 c -0.94,0 -1.95,-0.91 -1.95,-1.92 0,-0.59 0.45,-1.33 1.41,-1.33 1,0 1.95,0.99 1.95,1.92 z"
           id="path3208"
           inkscape:connector-curvature="0"
           style="fill:#000000;stroke-width:0" /><path
           d="m 484.79,402.84 -0.05,-0.17 -0.06,-0.17 -0.03,-0.08 -0.02,-0.09 -0.03,-0.08 -0.02,-0.09 -0.02,-0.09 -0.02,-0.09 -0.02,-0.1 -0.01,-0.09 -0.02,-0.1 0,-0.05 -0.01,-0.05 0,-0.06 0,-0.05 0,-0.05 0,-0.06 c 0,-1.64 1.39,-2.95 3.29,-2.95 3.49,0 5.03,4.79 5.03,5.33 0,0.45 -0.45,0.45 -0.56,0.45 -0.48,0 -0.53,-0.2 -0.67,-0.59 -0.8,-2.79 -2.33,-4.22 -3.69,-4.22 -0.7,0 -0.87,0.45 -0.87,1.22 0,0.79 0.25,1.46 0.56,2.23 0.34,0.94 0.73,1.87 1.11,2.78 0.31,0.84 1.58,4.02 1.72,4.44 0.09,0.34 0.2,0.76 0.2,1.11 0,1.64 -1.39,2.95 -3.31,2.95 -3.45,0 -5.05,-4.73 -5.05,-5.33 0,-0.45 0.49,-0.45 0.6,-0.45 0.48,0 0.51,0.17 0.62,0.56 0.91,3 2.44,4.25 3.72,4.25 0.56,0 0.87,-0.28 0.87,-1.22 0,-0.79 -0.2,-1.32 -1.07,-3.48 z"
           id="path3210"
           inkscape:connector-curvature="0"
           style="fill:#000000;stroke-width:0" /></g>    </g>
    <g
       transform="matrix(0.7,0,0,0.7,435.92947,89.850131)"
       id="g3245">
      <g
         style="font-style:normal;font-variant:normal;font-weight:normal;font-stretch:normal;letter-spacing:normal;word-spacing:normal;text-anchor:start;fill:none;stroke:#000000;stroke-linecap:butt;stroke-linejoin:miter;stroke-miterlimit:10.43299961;stroke-opacity:1;stroke-dasharray:none;stroke-dashoffset:0"
         id="g3247"
         transform="matrix(1.0629921,0,0,-1.0629921,-186.02362,789.27165)"
         xml:space="preserve"
         stroke-miterlimit="10.433"
         font-style="normal"
         font-variant="normal"
         font-weight="normal"
         font-stretch="normal"
         font-size-adjust="none"
         letter-spacing="normal"
         word-spacing="normal"><path
           style="fill:#000000;stroke-width:0"
           inkscape:connector-curvature="0"
           d="m 457.75,400.12 -0.03,-0.15 -0.04,-0.15 -0.03,-0.14 -0.03,-0.13 -0.04,-0.13 -0.03,-0.11 -0.04,-0.12 -0.03,-0.1 -0.04,-0.1 -0.04,-0.09 -0.04,-0.09 -0.05,-0.08 -0.05,-0.07 -0.05,-0.07 -0.06,-0.07 -0.06,-0.06 -0.07,-0.05 -0.07,-0.05 -0.08,-0.04 -0.09,-0.04 -0.09,-0.04 -0.1,-0.03 -0.11,-0.03 -0.12,-0.02 -0.13,-0.02 -0.06,-0.01 -0.07,-0.01 -0.07,-0.01 -0.08,-0.01 -0.07,0 -0.08,-0.01 -0.08,0 -0.09,-0.01 -0.08,0 -0.09,0 -0.1,0 -0.09,0 -0.1,-0.01 -0.1,0 c -0.6,0 -1.14,0 -1.14,-0.93 0,-0.41 0.25,-0.61 0.64,-0.61 1.36,0 2.79,0.15 4.18,0.15 1.64,0 3.35,-0.15 4.94,-0.15 0.25,0 0.89,0 0.89,1 0,0.54 -0.5,0.54 -1.19,0.54 -2.5,0 -2.5,0.36 -2.5,0.8 0,0.61 2.1,8.72 2.46,9.97 0.64,-1.44 2.03,-3.19 4.58,-3.19 l -0.05,1.1 c -3.3,0 -3.94,4.14 -3.94,4.43 0,0.1 0,0.21 0.14,0.8 l 2.46,9.77 c 0.34,1.34 1.68,2.73 2.57,3.48 1.75,1.55 3.21,1.89 4.05,1.89 1.98,0 3.19,-1.73 3.19,-4.69 0,-2.93 -1.64,-8.65 -2.55,-10.56 -1.69,-3.48 -4.08,-5.12 -5.92,-5.12 l 0.05,-1.1 c 5.78,0 12,7.27 12,14.6 0,4.68 -2.83,7.96 -6.63,7.96 -2.48,0 -4.87,-1.78 -6.51,-3.73 -0.5,2.69 -2.65,3.73 -4.49,3.73 -2.3,0 -3.25,-1.93 -3.69,-2.82 -0.9,-1.71 -1.54,-4.69 -1.54,-4.85 0,-0.5 0.5,-0.5 0.59,-0.5 0.5,0 0.55,0.07 0.84,1.16 0.86,3.53 1.85,5.92 3.64,5.92 0.85,0 1.55,-0.39 1.55,-2.28 0,-1.16 -0.15,-1.7 -0.34,-2.55 z"
           id="path3249" /><path
           style="fill:#000000;stroke-width:0"
           inkscape:connector-curvature="0"
           d="m 490.71,440.65 0.03,0.06 0.02,0.05 0.02,0.05 0.03,0.05 0.02,0.04 0.01,0.05 0.02,0.04 0.02,0.04 0.01,0.05 0.02,0.04 0.01,0.03 0.01,0.04 0.01,0.04 0.01,0.03 0.01,0.04 0.01,0.03 0.01,0.03 0.01,0.03 0,0.03 0.01,0.03 0,0.03 0.01,0.03 0,0.03 0,0.02 0.01,0.06 0,0.05 0,0.04 0,0.05 c 0,1.08 -0.98,1.92 -2.06,1.92 -1.33,0 -1.73,-1.09 -1.91,-1.64 l -4.6,-15.09 c -0.04,-0.06 -0.18,-0.52 -0.18,-0.56 0,-0.41 1.08,-0.77 1.36,-0.77 0.25,0 0.28,0.08 0.52,0.59 z"
           id="path3251" /><path
           style="fill:#000000;stroke-width:0"
           inkscape:connector-curvature="0"
           d="m 491.9,415.02 0,0.05 -0.01,0.05 0,0.06 -0.01,0.05 -0.01,0.06 -0.02,0.06 -0.01,0.05 -0.02,0.06 -0.03,0.05 -0.02,0.06 -0.03,0.06 -0.03,0.05 -0.03,0.05 -0.04,0.06 -0.03,0.05 -0.05,0.05 -0.04,0.05 -0.05,0.04 -0.05,0.05 -0.05,0.04 -0.06,0.04 -0.06,0.04 -0.06,0.04 -0.06,0.03 -0.07,0.03 -0.07,0.02 -0.08,0.02 -0.07,0.02 -0.09,0.02 -0.08,0.01 -0.09,0.01 -0.09,0 c -0.94,0 -1.95,-0.91 -1.95,-1.92 0,-0.6 0.45,-1.33 1.41,-1.33 1,0 1.95,0.98 1.95,1.92 z"
           id="path3253" /><path
           style="fill:#000000;stroke-width:0"
           inkscape:connector-curvature="0"
           d="m 484.79,397.32 -0.05,-0.17 -0.06,-0.17 -0.03,-0.09 -0.02,-0.08 -0.03,-0.09 -0.02,-0.09 -0.02,-0.08 -0.02,-0.1 -0.02,-0.09 -0.01,-0.1 -0.02,-0.1 0,-0.05 -0.01,-0.05 0,-0.05 0,-0.05 0,-0.06 0,-0.05 c 0,-1.64 1.39,-2.96 3.29,-2.96 3.49,0 5.03,4.8 5.03,5.33 0,0.46 -0.45,0.46 -0.56,0.46 -0.48,0 -0.53,-0.21 -0.67,-0.6 -0.8,-2.78 -2.33,-4.22 -3.69,-4.22 -0.7,0 -0.87,0.46 -0.87,1.22 0,0.8 0.25,1.47 0.56,2.24 0.34,0.93 0.73,1.87 1.11,2.78 0.31,0.84 1.58,4.01 1.72,4.44 0.09,0.34 0.2,0.76 0.2,1.1 0,1.65 -1.39,2.96 -3.31,2.96 -3.45,0 -5.05,-4.74 -5.05,-5.33 0,-0.45 0.49,-0.45 0.6,-0.45 0.48,0 0.51,0.17 0.62,0.56 0.91,3 2.44,4.25 3.72,4.25 0.56,0 0.87,-0.28 0.87,-1.22 0,-0.8 -0.2,-1.33 -1.07,-3.48 z"
           id="path3255" /></g>    </g>
    <g
       id="g3292"
       transform="matrix(0.7,0,0,0.7,385.09266,166.91642)">
      <g
         id="content-9"
         transform="matrix(1.0629921,0,0,-1.0629921,-186.02362,789.27165)"
         xml:space="preserve"
         stroke-miterlimit="10.433"
         font-style="normal"
         font-variant="normal"
         font-weight="normal"
         font-stretch="normal"
         font-size-adjust="none"
         letter-spacing="normal"
         word-spacing="normal"
         style="font-style:normal;font-variant:normal;font-weight:normal;font-stretch:normal;letter-spacing:normal;word-spacing:normal;text-anchor:start;fill:none;stroke:#000000;stroke-linecap:butt;stroke-linejoin:miter;stroke-miterlimit:10.43299961;stroke-opacity:1;stroke-dasharray:none;stroke-dashoffset:0"><path
           d="m 464.83,417.71 0.14,0.01 0.16,0 0.17,0 0.17,0 0.19,0.01 0.2,0 0.21,0.01 0.22,0.01 0.22,0.01 0.23,0.01 0.24,0.01 0.25,0.02 0.25,0.02 0.25,0.02 0.53,0.05 0.53,0.07 0.55,0.07 0.54,0.1 0.54,0.11 0.54,0.12 0.26,0.07 0.26,0.08 0.25,0.08 0.25,0.08 0.24,0.09 0.24,0.1 c 3.48,1.5 3.73,4.43 3.73,5.12 0,2.2 -1.89,4.23 -5.33,4.23 v -1.09 c 2.35,0 3.69,-1.44 3.69,-3.14 0,-5.17 -7.97,-5.17 -10.01,-5.17 h -2.05 c 1.95,7.56 7.08,8.31 8.37,8.31 v 1.09 c -5.53,0 -13.04,-4.82 -13.04,-13.54 0,-5.08 2.93,-9.02 7.81,-9.02 7.12,0 11.31,5.28 11.31,5.88 0,0.29 -0.3,0.65 -0.59,0.65 -0.25,0 -0.35,-0.11 -0.66,-0.5 -3.94,-4.93 -9.36,-4.93 -9.95,-4.93 -3.89,0 -4.35,4.18 -4.35,5.78 0,0.59 0.05,2.14 0.8,5.18 z"
           id="path3295"
           inkscape:connector-curvature="0"
           style="fill:#000000;stroke-width:0" /><path
           d="m 489.98,420.54 0,0.05 -0.01,0.06 0,0.05 -0.01,0.06 -0.01,0.05 -0.02,0.06 -0.02,0.05 -0.01,0.06 -0.03,0.06 -0.02,0.05 -0.03,0.06 -0.03,0.05 -0.03,0.06 -0.04,0.05 -0.04,0.05 -0.04,0.05 -0.04,0.05 -0.05,0.05 -0.05,0.04 -0.05,0.05 -0.06,0.04 -0.06,0.03 -0.06,0.04 -0.06,0.03 -0.07,0.03 -0.07,0.03 -0.08,0.02 -0.08,0.02 -0.08,0.01 -0.08,0.01 -0.09,0.01 -0.09,0 c -0.94,0 -1.95,-0.91 -1.95,-1.92 0,-0.59 0.45,-1.33 1.4,-1.33 1,0 1.96,0.99 1.96,1.92 z"
           id="path3297"
           inkscape:connector-curvature="0"
           style="fill:#000000;stroke-width:0" /><path
           d="m 482.87,402.84 -0.06,-0.17 -0.05,-0.17 -0.03,-0.08 -0.02,-0.09 -0.03,-0.08 -0.02,-0.09 -0.02,-0.09 -0.02,-0.09 -0.02,-0.1 -0.02,-0.09 -0.01,-0.1 0,-0.05 -0.01,-0.05 0,-0.06 0,-0.05 0,-0.05 -0.01,-0.06 c 0,-1.64 1.4,-2.95 3.3,-2.95 3.49,0 5.03,4.79 5.03,5.33 0,0.45 -0.45,0.45 -0.56,0.45 -0.48,0 -0.53,-0.2 -0.67,-0.59 -0.8,-2.79 -2.33,-4.22 -3.69,-4.22 -0.7,0 -0.87,0.45 -0.87,1.22 0,0.79 0.25,1.46 0.56,2.23 0.34,0.94 0.73,1.87 1.11,2.78 0.31,0.84 1.58,4.02 1.72,4.44 0.09,0.34 0.2,0.76 0.2,1.11 0,1.64 -1.39,2.95 -3.31,2.95 -3.46,0 -5.05,-4.73 -5.05,-5.33 0,-0.45 0.48,-0.45 0.59,-0.45 0.49,0 0.52,0.17 0.63,0.56 0.91,3 2.44,4.25 3.72,4.25 0.56,0 0.87,-0.28 0.87,-1.22 0,-0.79 -0.2,-1.32 -1.08,-3.48 z"
           id="path3299"
           inkscape:connector-curvature="0"
           style="fill:#000000;stroke-width:0" /></g>    </g>
    <path
       transform="translate(7.7126114,155.89444)"
       d="m 496.5518,113.13331 c 0,2.68456 -2.17626,4.86082 -4.86082,4.86082 -2.68456,0 -4.86082,-2.17626 -4.86082,-4.86082 0,-2.68456 2.17626,-4.86083 4.86082,-4.86083 2.68456,0 4.86082,2.17627 4.86082,4.86083 z"
       sodipodi:ry="4.8608236"
       sodipodi:rx="4.8608236"
       sodipodi:cy="113.13331"
       sodipodi:cx="491.69098"
       id="path3997"
       style="fill:#000000;fill-opacity:1;stroke:none"
       sodipodi:type="arc" />
    <path
       transform="translate(34.260201,171.59864)"
       d="m 496.5518,113.13331 c 0,2.68456 -2.17626,4.86082 -4.86082,4.86082 -2.68456,0 -4.86082,-2.17626 -4.86082,-4.86082 0,-2.68456 2.17626,-4.86083 4.86082,-4.86083 2.68456,0 4.86082,2.17627 4.86082,4.86083 z"
       sodipodi:ry="4.8608236"
       sodipodi:rx="4.8608236"
       sodipodi:cy="113.13331"
       sodipodi:cx="491.69098"
       id="path3997-4"
       style="fill:#000000;fill-opacity:1;stroke:none"
       sodipodi:type="arc" />
    <path
       transform="translate(55.946951,185.8072)"
       d="m 496.5518,113.13331 c 0,2.68456 -2.17626,4.86082 -4.86082,4.86082 -2.68456,0 -4.86082,-2.17626 -4.86082,-4.86082 0,-2.68456 2.17626,-4.86083 4.86082,-4.86083 2.68456,0 4.86082,2.17627 4.86082,4.86083 z"
       sodipodi:ry="4.8608236"
       sodipodi:rx="4.8608236"
       sodipodi:cy="113.13331"
       sodipodi:cx="491.69098"
       id="path3997-44"
       style="fill:#000000;fill-opacity:1;stroke:none"
       sodipodi:type="arc" />
    <path
       transform="translate(84.242699,203.37115)"
       d="m 496.5518,113.13331 c 0,2.68456 -2.17626,4.86082 -4.86082,4.86082 -2.68456,0 -4.86082,-2.17626 -4.86082,-4.86082 0,-2.68456 2.17626,-4.86083 4.86082,-4.86083 2.68456,0 4.86082,2.17627 4.86082,4.86083 z"
       sodipodi:ry="4.8608236"
       sodipodi:rx="4.8608236"
       sodipodi:cy="113.13331"
       sodipodi:cx="491.69098"
       id="path3997-7"
       style="fill:#000000;fill-opacity:1;stroke:none"
       sodipodi:type="arc" />
    <path
       transform="translate(108.29428,218.71123)"
       d="m 496.5518,113.13331 c 0,2.68456 -2.17626,4.86082 -4.86082,4.86082 -2.68456,0 -4.86082,-2.17626 -4.86082,-4.86082 0,-2.68456 2.17626,-4.86083 4.86082,-4.86083 2.68456,0 4.86082,2.17627 4.86082,4.86083 z"
       sodipodi:ry="4.8608236"
       sodipodi:rx="4.8608236"
       sodipodi:cy="113.13331"
       sodipodi:cx="491.69098"
       id="path3997-3"
       style="fill:#000000;fill-opacity:1;stroke:none"
       sodipodi:type="arc" />
    <path
       transform="translate(161.38942,250.49354)"
       d="m 496.5518,113.13331 c 0,2.68456 -2.17626,4.86082 -4.86082,4.86082 -2.68456,0 -4.86082,-2.17626 -4.86082,-4.86082 0,-2.68456 2.17626,-4.86083 4.86082,-4.86083 2.68456,0 4.86082,2.17627 4.86082,4.86083 z"
       sodipodi:ry="4.8608236"
       sodipodi:rx="4.8608236"
       sodipodi:cy="113.13331"
       sodipodi:cx="491.69098"
       id="path3997-9"
       style="fill:#000000;fill-opacity:1;stroke:none"
       sodipodi:type="arc" />
    <path
       transform="translate(185.31962,266.19774)"
       d="m 496.5518,113.13331 c 0,2.68456 -2.17626,4.86082 -4.86082,4.86082 -2.68456,0 -4.86082,-2.17626 -4.86082,-4.86082 0,-2.68456 2.17626,-4.86083 4.86082,-4.86083 2.68456,0 4.86082,2.17627 4.86082,4.86083 z"
       sodipodi:ry="4.8608236"
       sodipodi:rx="4.8608236"
       sodipodi:cy="113.13331"
       sodipodi:cx="491.69098"
       id="path3997-78"
       style="fill:#000000;fill-opacity:1;stroke:none"
       sodipodi:type="arc" />
    <path
       transform="translate(211.8672,281.90194)"
       d="m 496.5518,113.13331 c 0,2.68456 -2.17626,4.86082 -4.86082,4.86082 -2.68456,0 -4.86082,-2.17626 -4.86082,-4.86082 0,-2.68456 2.17626,-4.86083 4.86082,-4.86083 2.68456,0 4.86082,2.17627 4.86082,4.86083 z"
       sodipodi:ry="4.8608236"
       sodipodi:rx="4.8608236"
       sodipodi:cy="113.13331"
       sodipodi:cx="491.69098"
       id="path3997-70"
       style="fill:#000000;fill-opacity:1;stroke:none"
       sodipodi:type="arc" />
    <path
       transform="matrix(1.5,0,0,1.5,-112.12537,177.10096)"
       d="m 496.5518,113.13331 c 0,2.68456 -2.17626,4.86082 -4.86082,4.86082 -2.68456,0 -4.86082,-2.17626 -4.86082,-4.86082 0,-2.68456 2.17626,-4.86083 4.86082,-4.86083 2.68456,0 4.86082,2.17627 4.86082,4.86083 z"
       sodipodi:ry="4.8608236"
       sodipodi:rx="4.8608236"
       sodipodi:cy="113.13331"
       sodipodi:cx="491.69098"
       id="path3997-72"
       style="fill:#000000;fill-opacity:1;stroke:none"
       sodipodi:type="arc" />
    <path
       style="fill:#ffffff;fill-opacity:1;stroke:#000000;stroke-width:2.15796518;stroke-linecap:butt;stroke-linejoin:miter;stroke-miterlimit:5.5;stroke-opacity:1;stroke-dasharray:none"
       d="m 143.64773,678.38526 c 6.29835,7.89798 11.74974,15.48637 15.22601,16.53148 6.73671,2.02536 19.34117,-4.23947 21.15461,-8.81343 L 118.1946,496.18099 c -2.29335,-3.74708 -19.788878,2.49132 -21.441717,4.8404 -3.817924,5.42621 -1.848108,4.29995 -3.498677,23.33123 z"
       id="path3335"
       inkscape:connector-curvature="0"
       sodipodi:nodetypes="csccscc" />
    <path
       style="fill:none;stroke:#000000;stroke-width:0.43159306;stroke-linecap:butt;stroke-linejoin:miter;stroke-miterlimit:5.5;stroke-opacity:1;stroke-dasharray:none"
       d="M 151.96706,688.72865 94.038196,510.80015"
       id="path3337"
       inkscape:connector-curvature="0" />
    <path
       style="fill:none;stroke:#000000;stroke-width:0.43159306;stroke-linecap:butt;stroke-linejoin:miter;stroke-miterlimit:5.5;stroke-opacity:1;stroke-dasharray:none"
       d="M 94.209308,509.28551 153.05355,690.02552"
       id="path3339"
       inkscape:connector-curvature="0" />
    <path
       style="fill:none;stroke:#000000;stroke-width:0.6905489;stroke-linecap:butt;stroke-linejoin:miter;stroke-miterlimit:5.5;stroke-opacity:1;stroke-dasharray:none"
       d="M 156.57535,693.49448 94.926057,504.1387"
       id="path3341"
       inkscape:connector-curvature="0" />
    <path
       style="fill:none;stroke:#000000;stroke-width:0.6905489;stroke-linecap:butt;stroke-linejoin:miter;stroke-miterlimit:5.5;stroke-opacity:1;stroke-dasharray:none"
       d="M 95.864288,502.3966 158.48535,694.73718"
       id="path3343"
       inkscape:connector-curvature="0" />
    <path
       style="fill:none;stroke:#000000;stroke-width:0.86318606;stroke-linecap:butt;stroke-linejoin:miter;stroke-miterlimit:5.5;stroke-opacity:1;stroke-dasharray:none"
       d="M 160.59878,695.14951 97.23576,500.52999"
       id="path3345"
       inkscape:connector-curvature="0" />
    <path
       sodipodi:type="arc"
       style="fill:none;stroke:#000000;stroke-width:3.10743165;stroke-miterlimit:4;stroke-opacity:1;stroke-dasharray:none"
       id="path3368"
       sodipodi:cx="111.96429"
       sodipodi:cy="643.25507"
       sodipodi:rx="18.392857"
       sodipodi:ry="18.392857"
       d="m 130.35714,643.25507 c 0,10.15809 -8.23476,18.39285 -18.39285,18.39285 -10.1581,0 -18.39286,-8.23476 -18.39286,-18.39285 0,-10.1581 8.23476,-18.39286 18.39286,-18.39286 10.15809,0 18.39285,8.23476 18.39285,18.39286 z"
       transform="matrix(-0.06226597,-0.19124989,0.19124989,-0.06226597,37.264529,700.04943)" />
    <path
       sodipodi:type="arc"
       style="fill:none;stroke:#000000;stroke-width:1.70935667;stroke-miterlimit:4;stroke-opacity:1;stroke-dasharray:none"
       id="path4151"
       sodipodi:cx="111.96429"
       sodipodi:cy="643.25507"
       sodipodi:rx="18.392857"
       sodipodi:ry="18.392857"
       d="m 130.35714,643.25507 c 0,10.15809 -8.23476,18.39285 -18.39285,18.39285 -10.1581,0 -18.39286,-8.23476 -18.39286,-18.39285 0,-10.1581 8.23476,-18.39286 18.39286,-18.39286 10.15809,0 18.39285,8.23476 18.39285,18.39286 z"
       transform="matrix(-0.09055441,-0.27813783,0.27813783,-0.09055441,-15.459285,727.97445)" />
    <path
       sodipodi:type="arc"
       style="fill:none;stroke:#000000;stroke-width:3.14049578;stroke-miterlimit:4;stroke-opacity:1;stroke-dasharray:none"
       id="path4155"
       sodipodi:cx="111.96429"
       sodipodi:cy="643.25507"
       sodipodi:rx="18.392857"
       sodipodi:ry="18.392857"
       d="m 130.35714,643.25507 c 0,10.15809 -8.23476,18.39285 -18.39285,18.39285 -10.1581,0 -18.39286,-8.23476 -18.39286,-18.39285 0,-10.1581 8.23476,-18.39286 18.39286,-18.39286 10.15809,0 18.39285,8.23476 18.39285,18.39286 z"
       transform="matrix(-0.12322084,-0.37847271,0.37847271,-0.12322084,-76.342734,760.22122)" />
    <path
       sodipodi:type="arc"
       style="fill:none;stroke:#000000;stroke-width:3.10743165;stroke-miterlimit:4;stroke-opacity:1;stroke-dasharray:none"
       id="path3368-5"
       sodipodi:cx="111.96429"
       sodipodi:cy="643.25507"
       sodipodi:rx="18.392857"
       sodipodi:ry="18.392857"
       d="m 130.35714,643.25507 c 0,10.15809 -8.23476,18.39285 -18.39285,18.39285 -10.1581,0 -18.39286,-8.23476 -18.39286,-18.39285 0,-10.1581 8.23476,-18.39286 18.39286,-18.39286 10.15809,0 18.39285,8.23476 18.39285,18.39286 z"
       transform="matrix(-0.06226597,-0.19124989,0.19124989,-0.06226597,25.799312,664.83402)" />
    <path
       sodipodi:type="arc"
       style="fill:none;stroke:#000000;stroke-width:1.70935667;stroke-miterlimit:4;stroke-opacity:1;stroke-dasharray:none"
       id="path4151-7"
       sodipodi:cx="111.96429"
       sodipodi:cy="643.25507"
       sodipodi:rx="18.392857"
       sodipodi:ry="18.392857"
       d="m 130.35714,643.25507 c 0,10.15809 -8.23476,18.39285 -18.39285,18.39285 -10.1581,0 -18.39286,-8.23476 -18.39286,-18.39285 0,-10.1581 8.23476,-18.39286 18.39286,-18.39286 10.15809,0 18.39285,8.23476 18.39285,18.39286 z"
       transform="matrix(-0.09055441,-0.27813783,0.27813783,-0.09055441,-26.924504,692.75905)" />
    <path
       sodipodi:type="arc"
       style="fill:none;stroke:#000000;stroke-width:3.14049578;stroke-miterlimit:4;stroke-opacity:1;stroke-dasharray:none"
       id="path4155-1"
       sodipodi:cx="111.96429"
       sodipodi:cy="643.25507"
       sodipodi:rx="18.392857"
       sodipodi:ry="18.392857"
       d="m 130.35714,643.25507 c 0,10.15809 -8.23476,18.39285 -18.39285,18.39285 -10.1581,0 -18.39286,-8.23476 -18.39286,-18.39285 0,-10.1581 8.23476,-18.39286 18.39286,-18.39286 10.15809,0 18.39285,8.23476 18.39285,18.39286 z"
       transform="matrix(-0.12322084,-0.37847271,0.37847271,-0.12322084,-87.807954,725.00583)" />
    <path
       sodipodi:type="arc"
       style="fill:none;stroke:#000000;stroke-width:3.10743165;stroke-miterlimit:4;stroke-opacity:1;stroke-dasharray:none"
       id="path3368-8"
       sodipodi:cx="111.96429"
       sodipodi:cy="643.25507"
       sodipodi:rx="18.392857"
       sodipodi:ry="18.392857"
       d="m 130.35714,643.25507 c 0,10.15809 -8.23476,18.39285 -18.39285,18.39285 -10.1581,0 -18.39286,-8.23476 -18.39286,-18.39285 0,-10.1581 8.23476,-18.39286 18.39286,-18.39286 10.15809,0 18.39285,8.23476 18.39285,18.39286 z"
       transform="matrix(-0.06226597,-0.19124989,0.19124989,-0.06226597,20.149414,647.48038)" />
    <path
       sodipodi:type="arc"
       style="fill:none;stroke:#000000;stroke-width:1.70935667;stroke-miterlimit:4;stroke-opacity:1;stroke-dasharray:none"
       id="path4151-72"
       sodipodi:cx="111.96429"
       sodipodi:cy="643.25507"
       sodipodi:rx="18.392857"
       sodipodi:ry="18.392857"
       d="m 130.35714,643.25507 c 0,10.15809 -8.23476,18.39285 -18.39285,18.39285 -10.1581,0 -18.39286,-8.23476 -18.39286,-18.39285 0,-10.1581 8.23476,-18.39286 18.39286,-18.39286 10.15809,0 18.39285,8.23476 18.39285,18.39286 z"
       transform="matrix(-0.09055441,-0.27813783,0.27813783,-0.09055441,-32.574399,675.40539)" />
    <path
       sodipodi:type="arc"
       style="fill:none;stroke:#000000;stroke-width:3.14049578;stroke-miterlimit:4;stroke-opacity:1;stroke-dasharray:none"
       id="path4155-7"
       sodipodi:cx="111.96429"
       sodipodi:cy="643.25507"
       sodipodi:rx="18.392857"
       sodipodi:ry="18.392857"
       d="m 130.35714,643.25507 c 0,10.15809 -8.23476,18.39285 -18.39285,18.39285 -10.1581,0 -18.39286,-8.23476 -18.39286,-18.39285 0,-10.1581 8.23476,-18.39286 18.39286,-18.39286 10.15809,0 18.39285,8.23476 18.39285,18.39286 z"
       transform="matrix(-0.12322084,-0.37847271,0.37847271,-0.12322084,-93.457844,707.65215)" />
    <path
       transform="matrix(-0.07125994,-0.21887488,0.21887488,-0.07125994,18.631437,713.34077)"
       sodipodi:type="arc"
       style="fill:none;stroke:#000000;stroke-width:2.71523142;stroke-miterlimit:4;stroke-opacity:1;stroke-dasharray:none;stroke-dashoffset:0"
       id="path4204"
       sodipodi:cx="207.96515"
       sodipodi:cy="657.01373"
       sodipodi:rx="7.8286824"
       sodipodi:ry="7.8286824"
       d="m 215.79383,657.01373 c 0,4.32366 -3.50502,7.82869 -7.82868,7.82869 -4.32366,0 -7.82868,-3.50503 -7.82868,-7.82869 0,-4.32366 3.50502,-7.82868 7.82868,-7.82868 4.32366,0 7.82868,3.50502 7.82868,7.82868 z" />
    <path
       style="fill:none;stroke:#000000;stroke-width:1.29477906;stroke-linecap:butt;stroke-linejoin:miter;stroke-miterlimit:5.5;stroke-opacity:1;stroke-dasharray:none"
       d="m 161.13628,617.22295 c -3.60556,-21.57523 -9.27602,-40.74756 -19.16385,-57.00292"
       id="path4208"
       inkscape:connector-curvature="0"
       sodipodi:nodetypes="cc" />
  </g>
</svg>
